<svg width="627" height="661" version="1.1" xmlns="http://www.w3.org/2000/svg" desc="Created with imagetracer.js version 1.2.6" ><path fill="rgb(255,255,255)" stroke="rgb(255,255,255)" stroke-width="1" opacity="0.49411764705882355" d="M 299.5 0 L 305 0.5 L 299.5 1 L 299.5 0 Z " /><path fill="rgb(255,255,255)" stroke="rgb(255,255,255)" stroke-width="1" opacity="0.49411764705882355" d="M 332.5 0 L 338 0.5 L 332.5 1 L 332.5 0 Z " /><path fill="rgb(255,255,255)" stroke="rgb(255,255,255)" stroke-width="1" opacity="0.49411764705882355" d="M 291.5 1 L 295 1.5 L 291.5 2 L 291.5 1 Z " /><path fill="rgb(255,255,255)" stroke="rgb(255,255,255)" stroke-width="1" opacity="0.49411764705882355" d="M 341.5 1 L 346 1.5 L 341.5 2 L 341.5 1 Z " /><path fill="rgb(255,255,255)" stroke="rgb(255,255,255)" stroke-width="1" opacity="0.49411764705882355" d="M 285.5 2 L 289 2.5 L 285.5 3 L 285.5 2 Z " /><path fill="rgb(255,255,255)" stroke="rgb(255,255,255)" stroke-width="1" opacity="0.49411764705882355" d="M 348.5 2 L 351 2.5 L 348.5 3 L 348.5 2 Z " /><path fill="rgb(255,255,255)" stroke="rgb(255,255,255)" stroke-width="1" opacity="0.49411764705882355" d="M 280.5 3 L 283 3.5 L 280.5 4 L 280.5 3 Z " /><path fill="rgb(255,255,255)" stroke="rgb(255,255,255)" stroke-width="1" opacity="0.49411764705882355" d="M 353.5 3 L 356 3.5 L 353.5 4 L 353.5 3 Z " /><path fill="rgb(255,255,255)" stroke="rgb(255,255,255)" stroke-width="1" opacity="0.49411764705882355" d="M 275.5 4 L 278 4.5 L 275.5 5 L 275.5 4 Z " /><path fill="rgb(255,255,255)" stroke="rgb(255,255,255)" stroke-width="1" opacity="0.49411764705882355" d="M 271.5 5 L 274 5.5 L 271.5 6 L 271.5 5 Z " /><path fill="rgb(255,255,255)" stroke="rgb(255,255,255)" stroke-width="1" opacity="0.49411764705882355" d="M 267.5 6 L 270 6.5 L 267.5 7 L 267.5 6 Z " /><path fill="rgb(255,255,255)" stroke="rgb(255,255,255)" stroke-width="1" opacity="0.49411764705882355" d="M 365.5 6 L 368 6.5 L 365.5 7 L 365.5 6 Z " /><path fill="rgb(255,255,255)" stroke="rgb(255,255,255)" stroke-width="1" opacity="0.49411764705882355" d="M 260.5 8 L 263 8.5 L 260.5 9 L 260.5 8 Z " /><path fill="rgb(255,255,255)" stroke="rgb(255,255,255)" stroke-width="1" opacity="0.49411764705882355" d="M 254.5 10 L 256 10.5 L 249.5 13 L 249.5 12 L 254.5 10 Z " /><path fill="rgb(255,255,255)" stroke="rgb(255,255,255)" stroke-width="1" opacity="0.49411764705882355" d="M 378.5 10 L 382 11.5 L 380.5 12 L 378.5 10 Z " /><path fill="rgb(255,255,255)" stroke="rgb(255,255,255)" stroke-width="1" opacity="0.49411764705882355" d="M 383.5 12 L 387 13.5 L 385.5 14 L 383.5 12 Z " /><path fill="rgb(255,255,255)" stroke="rgb(255,255,255)" stroke-width="1" opacity="0.49411764705882355" d="M 241.5 15 L 243 15.5 L 239.5 17 L 239.5 16 L 241.5 15 Z " /><path fill="rgb(255,255,255)" stroke="rgb(255,255,255)" stroke-width="1" opacity="0.49411764705882355" d="M 390.5 15 L 405 22.5 L 403.5 22 L 390.5 16 L 390.5 15 Z " /><path fill="rgb(255,255,255)" stroke="rgb(255,255,255)" stroke-width="1" opacity="0.49411764705882355" d="M 234.5 18 L 236 18.5 L 221.5 26 L 222.5 24 L 234.5 18 Z " /><path fill="rgb(255,255,255)" stroke="rgb(255,255,255)" stroke-width="1" opacity="0.49411764705882355" d="M 406.5 23 L 410 25.5 L 408.5 25 L 406.5 23 Z " /><path fill="rgb(255,255,255)" stroke="rgb(255,255,255)" stroke-width="1" opacity="0.49411764705882355" d="M 411.5 26 Q 432.7 38.3 448 56.5 L 446.5 59 L 447 57.5 L 431.5 41 L 412.5 28 L 411.5 26 Z " /><path fill="rgb(255,255,255)" stroke="rgb(255,255,255)" stroke-width="1" opacity="0.49411764705882355" d="M 217.5 27 L 216.5 29 L 214.5 30 L 215.5 28 L 217.5 27 Z " /><path fill="rgb(255,255,255)" stroke="rgb(255,255,255)" stroke-width="1" opacity="0.49411764705882355" d="M 212.5 30 L 211.5 32 Q 188.2 45.7 170.5 65 L 180.5 54 Q 195 40.5 212.5 30 Z " /><path fill="rgb(255,255,255)" stroke="rgb(255,255,255)" stroke-width="1" opacity="0.49411764705882355" d="M 303.5 42 L 310 42.5 L 303.5 43 L 303.5 42 Z " /><path fill="rgb(255,255,255)" stroke="rgb(255,255,255)" stroke-width="1" opacity="0.49411764705882355" d="M 326.5 42 L 333 42.5 L 326.5 43 L 326.5 42 Z " /><path fill="rgb(255,255,255)" stroke="rgb(255,255,255)" stroke-width="1" opacity="0.49411764705882355" d="M 295.5 43 L 300 43.5 L 295.5 44 L 295.5 43 Z " /><path fill="rgb(255,255,255)" stroke="rgb(255,255,255)" stroke-width="1" opacity="0.49411764705882355" d="M 336.5 43 L 340 43.5 L 336.5 44 L 336.5 43 Z " /><path fill="rgb(255,255,255)" stroke="rgb(255,255,255)" stroke-width="1" opacity="0.49411764705882355" d="M 290.5 44 L 293 44.5 L 290.5 45 L 290.5 44 Z " /><path fill="rgb(255,255,255)" stroke="rgb(255,255,255)" stroke-width="1" opacity="0.49411764705882355" d="M 342.5 44 L 345 44.5 L 342.5 45 L 342.5 44 Z " /><path fill="rgb(255,255,255)" stroke="rgb(255,255,255)" stroke-width="1" opacity="0.49411764705882355" d="M 285.5 45 L 288 45.5 L 285.5 46 L 285.5 45 Z " /><path fill="rgb(255,255,255)" stroke="rgb(255,255,255)" stroke-width="1" opacity="0.49411764705882355" d="M 347.5 45 L 350 45.5 L 347.5 46 L 347.5 45 Z " /><path fill="rgb(255,255,255)" stroke="rgb(255,255,255)" stroke-width="1" opacity="0.49411764705882355" d="M 351.5 46 L 354 46.5 L 351.5 47 L 351.5 46 Z " /><path fill="rgb(255,255,255)" stroke="rgb(255,255,255)" stroke-width="1" opacity="0.49411764705882355" d="M 273.5 48 L 276 48.5 L 273.5 49 L 273.5 48 Z " /><path fill="rgb(255,255,255)" stroke="rgb(255,255,255)" stroke-width="1" opacity="0.49411764705882355" d="M 361.5 49 L 365 50.5 L 363.5 51 L 361.5 49 Z " /><path fill="rgb(255,255,255)" stroke="rgb(255,255,255)" stroke-width="1" opacity="0.49411764705882355" d="M 267.5 50 L 269 50.5 L 262.5 53 L 262.5 52 L 267.5 50 Z " /><path fill="rgb(255,255,255)" stroke="rgb(255,255,255)" stroke-width="1" opacity="0.49411764705882355" d="M 259.5 53 L 261 53.5 L 257.5 55 L 257.5 54 L 259.5 53 Z " /><path fill="rgb(255,255,255)" stroke="rgb(255,255,255)" stroke-width="1" opacity="0.49411764705882355" d="M 371.5 53 L 384 59.5 L 382.5 59 L 371.5 54 L 371.5 53 Z " /><path fill="rgb(255,255,255)" stroke="rgb(255,255,255)" stroke-width="1" opacity="0.49411764705882355" d="M 252.5 56 L 254 56.5 L 243.5 62 L 244.5 60 L 252.5 56 Z " /><path fill="rgb(255,255,255)" stroke="rgb(255,255,255)" stroke-width="1" opacity="0.49411764705882355" d="M 444.5 59 L 437.5 67 L 444.5 59 Z " /><path fill="rgb(255,255,255)" stroke="rgb(255,255,255)" stroke-width="1" opacity="0.49411764705882355" d="M 387.5 61 L 388.5 63 L 387.5 61 Z " /><path fill="rgb(255,255,255)" stroke="rgb(255,255,255)" stroke-width="1" opacity="0.49411764705882355" d="M 239.5 63 L 238.5 65 L 236.5 66 L 237.5 64 L 239.5 63 Z " /><path fill="rgb(255,255,255)" stroke="rgb(255,255,255)" stroke-width="1" opacity="0.49411764705882355" d="M 390.5 63 L 398 68.5 L 395.5 67 Q 390.9 65.8 390.5 63 Z " /><path fill="rgb(255,255,255)" stroke="rgb(255,255,255)" stroke-width="1" opacity="0.49411764705882355" d="M 169.5 66 L 163.5 73 L 169.5 66 Z " /><path fill="rgb(255,255,255)" stroke="rgb(255,255,255)" stroke-width="1" opacity="0.49411764705882355" d="M 234.5 66 L 233.5 68 L 224.5 74 L 226.5 71 L 234.5 66 Z " /><path fill="rgb(255,255,255)" stroke="rgb(255,255,255)" stroke-width="1" opacity="0.49411764705882355" d="M 435.5 67 L 428.5 75 L 415.5 85 L 399 69.5 L 402.5 72 L 416.5 84 L 435.5 67 Z " /><path fill="rgb(255,255,255)" stroke="rgb(255,255,255)" stroke-width="1" opacity="0.49411764705882355" d="M 162.5 74 L 160 77.5 L 154.5 85 L 156 82.5 L 162.5 74 Z " /><path fill="rgb(255,255,255)" stroke="rgb(255,255,255)" stroke-width="1" opacity="0.49411764705882355" d="M 222.5 74 L 219.5 78 L 213.5 83 L 218.5 77 L 222.5 74 Z " /><path fill="rgb(255,255,255)" stroke="rgb(255,255,255)" stroke-width="1" opacity="0.49411764705882355" d="M 460.5 80 L 467 80.5 L 460.5 81 L 460.5 80 Z " /><path fill="rgb(255,255,255)" stroke="rgb(255,255,255)" stroke-width="1" opacity="0.49411764705882355" d="M 455.5 81 L 458 81.5 L 455.5 82 L 455.5 81 Z " /><path fill="rgb(255,255,255)" stroke="rgb(255,255,255)" stroke-width="1" opacity="0.49411764705882355" d="M 469.5 81 L 474 82.5 L 472.5 83 L 469.5 82 L 469.5 81 Z " /><path fill="rgb(255,255,255)" stroke="rgb(255,255,255)" stroke-width="1" opacity="0.49411764705882355" d="M 452.5 82 L 454 82.5 L 449.5 85 L 450.5 83 L 452.5 82 Z " /><path fill="rgb(255,255,255)" stroke="rgb(255,255,255)" stroke-width="1" opacity="0.49411764705882355" d="M 211.5 83 L 200 95.5 L 189.5 109 L 191 106.5 Q 199.5 93 211.5 83 Z " /><path fill="rgb(255,255,255)" stroke="rgb(255,255,255)" stroke-width="1" opacity="0.49411764705882355" d="M 477.5 84 L 486 91.5 L 487 93.5 L 485 92.5 L 479.5 86 L 477.5 84 Z " /><path fill="rgb(255,255,255)" stroke="rgb(255,255,255)" stroke-width="1" opacity="0.49411764705882355" d="M 447.5 85 L 441 92.5 L 438.5 98 L 438 96.5 Q 441 89 447.5 85 Z " /><path fill="rgb(255,255,255)" stroke="rgb(255,255,255)" stroke-width="1" opacity="0.49411764705882355" d="M 153.5 86 L 152.5 88 L 153.5 86 Z " /><path fill="rgb(255,255,255)" stroke="rgb(255,255,255)" stroke-width="1" opacity="0.49411764705882355" d="M 151.5 89 L 150.5 91 L 151.5 89 Z " /><path fill="rgb(255,255,255)" stroke="rgb(255,255,255)" stroke-width="1" opacity="0.49411764705882355" d="M 149.5 92 L 149 93.5 L 147.5 96 L 148 94.5 L 149.5 92 Z " /><path fill="rgb(255,255,255)" stroke="rgb(255,255,255)" stroke-width="1" opacity="0.49411764705882355" d="M 146.5 97 L 146 98.5 L 138.5 114 L 138 112.5 L 146.5 97 Z " /><path fill="rgb(255,255,255)" stroke="rgb(255,255,255)" stroke-width="1" opacity="0.49411764705882355" d="M 304.5 98 L 310 98.5 L 304.5 99 L 304.5 98 Z " /><path fill="rgb(255,255,255)" stroke="rgb(255,255,255)" stroke-width="1" opacity="0.49411764705882355" d="M 332.5 98 L 338 98.5 L 332.5 99 L 332.5 98 Z " /><path fill="rgb(255,255,255)" stroke="rgb(255,255,255)" stroke-width="1" opacity="0.49411764705882355" d="M 296.5 99 L 301 99.5 L 296.5 100 L 296.5 99 Z " /><path fill="rgb(255,255,255)" stroke="rgb(255,255,255)" stroke-width="1" opacity="0.49411764705882355" d="M 341.5 99 L 344 99.5 L 341.5 100 L 341.5 99 Z " /><path fill="rgb(255,255,255)" stroke="rgb(255,255,255)" stroke-width="1" opacity="0.49411764705882355" d="M 291.5 100 L 294 100.5 L 291.5 101 L 291.5 100 Z " /><path fill="rgb(255,255,255)" stroke="rgb(255,255,255)" stroke-width="1" opacity="0.49411764705882355" d="M 346.5 100 L 349 100.5 L 346.5 101 L 346.5 100 Z " /><path fill="rgb(255,255,255)" stroke="rgb(255,255,255)" stroke-width="1" opacity="0.49411764705882355" d="M 286.5 101 L 289 101.5 L 286.5 102 L 286.5 101 Z " /><path fill="rgb(255,255,255)" stroke="rgb(255,255,255)" stroke-width="1" opacity="0.49411764705882355" d="M 351.5 101 L 354 101.5 L 351.5 102 L 351.5 101 Z " /><path fill="rgb(255,255,255)" stroke="rgb(255,255,255)" stroke-width="1" opacity="0.49411764705882355" d="M 282.5 102 L 285 102.5 L 282.5 103 L 282.5 102 Z " /><path fill="rgb(255,255,255)" stroke="rgb(255,255,255)" stroke-width="1" opacity="0.49411764705882355" d="M 278.5 103 L 281 103.5 L 278.5 104 L 278.5 103 Z " /><path fill="rgb(255,255,255)" stroke="rgb(255,255,255)" stroke-width="1" opacity="0.49411764705882355" d="M 358.5 103 L 366 105.5 L 364.5 106 L 358.5 104 L 358.5 103 Z " /><path fill="rgb(255,255,255)" stroke="rgb(255,255,255)" stroke-width="1" opacity="0.49411764705882355" d="M 436.5 103 L 437 111.5 L 436 111.5 L 436.5 103 Z " /><path fill="rgb(255,255,255)" stroke="rgb(255,255,255)" stroke-width="1" opacity="0.49411764705882355" d="M 268.5 106 L 271 106.5 L 266.5 108 L 266.5 107 L 268.5 106 Z " /><path fill="rgb(255,255,255)" stroke="rgb(255,255,255)" stroke-width="1" opacity="0.49411764705882355" d="M 367.5 106 L 373 108.5 L 371.5 109 L 367.5 107 L 367.5 106 Z " /><path fill="rgb(255,255,255)" stroke="rgb(255,255,255)" stroke-width="1" opacity="0.49411764705882355" d="M 490.5 106 L 491 108.5 L 490 108.5 L 490.5 106 Z " /><path fill="rgb(255,255,255)" stroke="rgb(255,255,255)" stroke-width="1" opacity="0.49411764705882355" d="M 260.5 109 L 262 109.5 L 258.5 111 L 258.5 110 L 260.5 109 Z " /><path fill="rgb(255,255,255)" stroke="rgb(255,255,255)" stroke-width="1" opacity="0.49411764705882355" d="M 188.5 110 L 187.5 112 L 188.5 110 Z " /><path fill="rgb(255,255,255)" stroke="rgb(255,255,255)" stroke-width="1" opacity="0.49411764705882355" d="M 376.5 110 L 390 119.5 L 386.5 117 L 377.5 112 L 376.5 110 Z " /><path fill="rgb(255,255,255)" stroke="rgb(255,255,255)" stroke-width="1" opacity="0.49411764705882355" d="M 255.5 111 L 257 111.5 L 251.5 114 L 251.5 113 L 255.5 111 Z " /><path fill="rgb(255,255,255)" stroke="rgb(255,255,255)" stroke-width="1" opacity="0.49411764705882355" d="M 186.5 113 L 186 114.5 L 184.5 117 L 185 115.5 L 186.5 113 Z " /><path fill="rgb(255,255,255)" stroke="rgb(255,255,255)" stroke-width="1" opacity="0.49411764705882355" d="M 137.5 115 L 138 116.5 L 136.5 119 L 136 117.5 L 137.5 115 Z " /><path fill="rgb(255,255,255)" stroke="rgb(255,255,255)" stroke-width="1" opacity="0.49411764705882355" d="M 183.5 118 L 183 119.5 L 180.5 124 L 181 122.5 L 183.5 118 Z " /><path fill="rgb(255,255,255)" stroke="rgb(255,255,255)" stroke-width="1" opacity="0.49411764705882355" d="M 135.5 120 L 136 121.5 L 134.5 124 L 134 122.5 L 135.5 120 Z " /><path fill="rgb(255,255,255)" stroke="rgb(255,255,255)" stroke-width="1" opacity="0.49411764705882355" d="M 391.5 120 Q 400.9 127.5 407 138.5 L 405 137.5 Q 399.3 126.9 391.5 120 Z " /><path fill="rgb(255,255,255)" stroke="rgb(255,255,255)" stroke-width="1" opacity="0.49411764705882355" d="M 439.5 120 L 448.5 130 L 454 132.5 L 452.5 133 Q 444.3 129.7 440 122.5 L 439.5 120 Z " /><path fill="rgb(255,255,255)" stroke="rgb(255,255,255)" stroke-width="1" opacity="0.49411764705882355" d="M 235.5 121 L 234.5 123 L 232.5 124 L 233.5 122 L 235.5 121 Z " /><path fill="rgb(255,255,255)" stroke="rgb(255,255,255)" stroke-width="1" opacity="0.49411764705882355" d="M 486.5 121 L 486 122.5 L 479.5 130 L 485 123.5 L 486.5 121 Z " /><path fill="rgb(255,255,255)" stroke="rgb(255,255,255)" stroke-width="1" opacity="0.49411764705882355" d="M 230.5 124 L 229.5 126 L 227.5 127 L 228.5 125 L 230.5 124 Z " /><path fill="rgb(255,255,255)" stroke="rgb(255,255,255)" stroke-width="1" opacity="0.49411764705882355" d="M 179.5 125 L 180 126.5 L 176.5 133 L 176 131.5 L 179.5 125 Z " /><path fill="rgb(255,255,255)" stroke="rgb(255,255,255)" stroke-width="1" opacity="0.49411764705882355" d="M 225.5 127 L 224.5 129 L 218.5 133 L 220.5 130 L 225.5 127 Z " /><path fill="rgb(255,255,255)" stroke="rgb(255,255,255)" stroke-width="1" opacity="0.49411764705882355" d="M 132.5 128 L 133 130.5 L 132 130.5 L 132.5 128 Z " /><path fill="rgb(255,255,255)" stroke="rgb(255,255,255)" stroke-width="1" opacity="0.49411764705882355" d="M 477.5 130 L 476.5 132 L 473.5 133 L 473.5 132 L 477.5 130 Z " /><path fill="rgb(255,255,255)" stroke="rgb(255,255,255)" stroke-width="1" opacity="0.49411764705882355" d="M 216.5 133 L 214.5 136 L 210.5 139 L 213.5 135 L 216.5 133 Z " /><path fill="rgb(255,255,255)" stroke="rgb(255,255,255)" stroke-width="1" opacity="0.49411764705882355" d="M 469.5 133 L 472 133.5 L 469.5 134 L 469.5 133 Z " /><path fill="rgb(255,255,255)" stroke="rgb(255,255,255)" stroke-width="1" opacity="0.49411764705882355" d="M 175.5 134 L 176 135.5 L 172.5 145 L 172 142.5 L 175.5 134 Z " /><path fill="rgb(255,255,255)" stroke="rgb(255,255,255)" stroke-width="1" opacity="0.49411764705882355" d="M 459.5 134 L 467 134.5 L 459.5 135 L 459.5 134 Z " /><path fill="rgb(255,255,255)" stroke="rgb(255,255,255)" stroke-width="1" opacity="0.49411764705882355" d="M 130.5 135 L 131 137.5 L 130 137.5 L 130.5 135 Z " /><path fill="rgb(255,255,255)" stroke="rgb(255,255,255)" stroke-width="1" opacity="0.49411764705882355" d="M 129.5 139 L 130 141.5 L 129 141.5 L 129.5 139 Z " /><path fill="rgb(255,255,255)" stroke="rgb(255,255,255)" stroke-width="1" opacity="0.49411764705882355" d="M 208.5 139 L 205.5 143 L 208.5 139 Z " /><path fill="rgb(255,255,255)" stroke="rgb(255,255,255)" stroke-width="1" opacity="0.49411764705882355" d="M 310.5 140 L 317 140.5 L 310.5 141 L 310.5 140 Z " /><path fill="rgb(255,255,255)" stroke="rgb(255,255,255)" stroke-width="1" opacity="0.49411764705882355" d="M 325.5 140 L 332 140.5 L 325.5 141 L 325.5 140 Z " /><path fill="rgb(255,255,255)" stroke="rgb(255,255,255)" stroke-width="1" opacity="0.49411764705882355" d="M 505.5 140 Q 508.8 138.9 508 141.5 L 509 143.5 L 508 143.5 L 506.5 141 L 503.5 142 L 503.5 141 L 505.5 140 Z " /><path fill="rgb(255,255,255)" stroke="rgb(255,255,255)" stroke-width="1" opacity="0.49411764705882355" d="M 303.5 141 L 307 141.5 L 303.5 142 L 303.5 141 Z " /><path fill="rgb(255,255,255)" stroke="rgb(255,255,255)" stroke-width="1" opacity="0.49411764705882355" d="M 335.5 141 L 339 141.5 L 335.5 142 L 335.5 141 Z " /><path fill="rgb(255,255,255)" stroke="rgb(255,255,255)" stroke-width="1" opacity="0.49411764705882355" d="M 297.5 142 L 301 142.5 L 297.5 143 L 297.5 142 Z " /><path fill="rgb(255,255,255)" stroke="rgb(255,255,255)" stroke-width="1" opacity="0.49411764705882355" d="M 340.5 142 L 343 142.5 L 340.5 143 L 340.5 142 Z " /><path fill="rgb(255,255,255)" stroke="rgb(255,255,255)" stroke-width="1" opacity="0.49411764705882355" d="M 500.5 142 L 502 142.5 L 496.5 145 L 496.5 144 L 500.5 142 Z " /><path fill="rgb(255,255,255)" stroke="rgb(255,255,255)" stroke-width="1" opacity="0.49411764705882355" d="M 203.5 143 L 197.5 150 L 176.5 170 L 196.5 149 L 203.5 143 Z " /><path fill="rgb(255,255,255)" stroke="rgb(255,255,255)" stroke-width="1" opacity="0.49411764705882355" d="M 293.5 143 L 296 143.5 L 293.5 144 L 293.5 143 Z " /><path fill="rgb(255,255,255)" stroke="rgb(255,255,255)" stroke-width="1" opacity="0.49411764705882355" d="M 344.5 143 L 349 144.5 L 347.5 145 L 344.5 144 L 344.5 143 Z " /><path fill="rgb(255,255,255)" stroke="rgb(255,255,255)" stroke-width="1" opacity="0.49411764705882355" d="M 128.5 144 L 129 146.5 L 128 146.5 L 128.5 144 Z " /><path fill="rgb(255,255,255)" stroke="rgb(255,255,255)" stroke-width="1" opacity="0.49411764705882355" d="M 289.5 144 L 292 144.5 L 289.5 145 L 289.5 144 Z " /><path fill="rgb(255,255,255)" stroke="rgb(255,255,255)" stroke-width="1" opacity="0.49411764705882355" d="M 493.5 145 L 495 145.5 L 491.5 147 L 491.5 146 L 493.5 145 Z " /><path fill="rgb(255,255,255)" stroke="rgb(255,255,255)" stroke-width="1" opacity="0.49411764705882355" d="M 171.5 146 L 172 148.5 L 171 148.5 L 171.5 146 Z " /><path fill="rgb(255,255,255)" stroke="rgb(255,255,255)" stroke-width="1" opacity="0.49411764705882355" d="M 410.5 146 L 412 149.5 L 411 149.5 L 410.5 146 Z " /><path fill="rgb(255,255,255)" stroke="rgb(255,255,255)" stroke-width="1" opacity="0.49411764705882355" d="M 277.5 148 L 279 148.5 L 275.5 150 L 275.5 149 L 277.5 148 Z " /><path fill="rgb(255,255,255)" stroke="rgb(255,255,255)" stroke-width="1" opacity="0.49411764705882355" d="M 357.5 148 L 362 151.5 L 359.5 150 L 357.5 148 Z " /><path fill="rgb(255,255,255)" stroke="rgb(255,255,255)" stroke-width="1" opacity="0.49411764705882355" d="M 486.5 148 L 488 148.5 L 484.5 150 L 484.5 149 L 486.5 148 Z " /><path fill="rgb(255,255,255)" stroke="rgb(255,255,255)" stroke-width="1" opacity="0.49411764705882355" d="M 127.5 149 L 128 152.5 L 127 152.5 L 127.5 149 Z " /><path fill="rgb(255,255,255)" stroke="rgb(255,255,255)" stroke-width="1" opacity="0.49411764705882355" d="M 170.5 150 L 171 152.5 L 170 152.5 L 170.5 150 Z " /><path fill="rgb(255,255,255)" stroke="rgb(255,255,255)" stroke-width="1" opacity="0.49411764705882355" d="M 272.5 150 L 274 150.5 L 270.5 152 L 270.5 151 L 272.5 150 Z " /><path fill="rgb(255,255,255)" stroke="rgb(255,255,255)" stroke-width="1" opacity="0.49411764705882355" d="M 511.5 150 L 514 156.5 L 513 156.5 L 511.5 150 Z " /><path fill="rgb(255,255,255)" stroke="rgb(255,255,255)" stroke-width="1" opacity="0.49411764705882355" d="M 479.5 151 L 481 151.5 L 477.5 153 L 477.5 152 L 479.5 151 Z " /><path fill="rgb(255,255,255)" stroke="rgb(255,255,255)" stroke-width="1" opacity="0.49411764705882355" d="M 363.5 152 L 367.5 157 L 363.5 152 Z " /><path fill="rgb(255,255,255)" stroke="rgb(255,255,255)" stroke-width="1" opacity="0.49411764705882355" d="M 413.5 154 L 414 156.5 L 413 156.5 L 413.5 154 Z " /><path fill="rgb(255,255,255)" stroke="rgb(255,255,255)" stroke-width="1" opacity="0.49411764705882355" d="M 472.5 154 L 474 154.5 L 470.5 156 L 470.5 155 L 472.5 154 Z " /><path fill="rgb(255,255,255)" stroke="rgb(255,255,255)" stroke-width="1" opacity="0.49411764705882355" d="M 169.5 155 L 170 158.5 L 169 158.5 L 169.5 155 Z " /><path fill="rgb(255,255,255)" stroke="rgb(255,255,255)" stroke-width="1" opacity="0.49411764705882355" d="M 126.5 156 L 127 161.5 L 126 161.5 L 126.5 156 Z " /><path fill="rgb(255,255,255)" stroke="rgb(255,255,255)" stroke-width="1" opacity="0.49411764705882355" d="M 256.5 158 L 255.5 160 L 253.5 161 L 254.5 159 L 256.5 158 Z " /><path fill="rgb(255,255,255)" stroke="rgb(255,255,255)" stroke-width="1" opacity="0.49411764705882355" d="M 368.5 158 L 369.5 160 L 368.5 158 Z " /><path fill="rgb(255,255,255)" stroke="rgb(255,255,255)" stroke-width="1" opacity="0.49411764705882355" d="M 414.5 158 L 415 161.5 L 414 161.5 L 414.5 158 Z " /><path fill="rgb(255,255,255)" stroke="rgb(255,255,255)" stroke-width="1" opacity="0.49411764705882355" d="M 469.5 159 L 471 162.5 L 470 162.5 L 469.5 159 Z " /><path fill="rgb(255,255,255)" stroke="rgb(255,255,255)" stroke-width="1" opacity="0.49411764705882355" d="M 251.5 161 L 250.5 163 L 248.5 164 L 249.5 162 L 251.5 161 Z " /><path fill="rgb(255,255,255)" stroke="rgb(255,255,255)" stroke-width="1" opacity="0.49411764705882355" d="M 168.5 162 L 169 168.5 L 168 168.5 L 168.5 162 Z " /><path fill="rgb(255,255,255)" stroke="rgb(255,255,255)" stroke-width="1" opacity="0.49411764705882355" d="M 246.5 164 L 245.5 166 L 246.5 164 Z " /><path fill="rgb(255,255,255)" stroke="rgb(255,255,255)" stroke-width="1" opacity="0.49411764705882355" d="M 415.5 164 L 416 168.5 L 415 168.5 L 415.5 164 Z " /><path fill="rgb(255,255,255)" stroke="rgb(255,255,255)" stroke-width="1" opacity="0.49411764705882355" d="M 471.5 164 L 473 167.5 L 472 167.5 L 471.5 164 Z " /><path fill="rgb(255,255,255)" stroke="rgb(255,255,255)" stroke-width="1" opacity="0.49411764705882355" d="M 516.5 164 L 517 166.5 L 516 166.5 L 516.5 164 Z " /><path fill="rgb(255,255,255)" stroke="rgb(255,255,255)" stroke-width="1" opacity="0.49411764705882355" d="M 372.5 165 L 373 167.5 L 372 167.5 L 372.5 165 Z " /><path fill="rgb(255,255,255)" stroke="rgb(255,255,255)" stroke-width="1" opacity="0.49411764705882355" d="M 243.5 166 L 242.5 168 L 243.5 166 Z " /><path fill="rgb(255,255,255)" stroke="rgb(255,255,255)" stroke-width="1" opacity="0.49411764705882355" d="M 240.5 168 L 238.5 171 L 240.5 168 Z " /><path fill="rgb(255,255,255)" stroke="rgb(255,255,255)" stroke-width="1" opacity="0.49411764705882355" d="M 373.5 169 L 374 180.5 L 373 180.5 L 373.5 169 Z " /><path fill="rgb(255,255,255)" stroke="rgb(255,255,255)" stroke-width="1" opacity="0.49411764705882355" d="M 175.5 171 L 168.5 179 L 168 177 L 175.5 171 Z " /><path fill="rgb(255,255,255)" stroke="rgb(255,255,255)" stroke-width="1" opacity="0.49411764705882355" d="M 236.5 171 L 233.5 175 L 236.5 171 Z " /><path fill="rgb(255,255,255)" stroke="rgb(255,255,255)" stroke-width="1" opacity="0.49411764705882355" d="M 518.5 171 L 519 173.5 L 518 173.5 L 518.5 171 Z " /><path fill="rgb(255,255,255)" stroke="rgb(255,255,255)" stroke-width="1" opacity="0.49411764705882355" d="M 231.5 175 L 225.5 182 L 208 198.5 L 193.5 215 L 199 208.5 L 224.5 181 L 231.5 175 Z " /><path fill="rgb(255,255,255)" stroke="rgb(255,255,255)" stroke-width="1" opacity="0.49411764705882355" d="M 476.5 178 L 477 180.5 L 476 180.5 L 476.5 178 Z " /><path fill="rgb(255,255,255)" stroke="rgb(255,255,255)" stroke-width="1" opacity="0.49411764705882355" d="M 415.5 181 L 416 186.5 L 415 186.5 L 415.5 181 Z " /><path fill="rgb(255,255,255)" stroke="rgb(255,255,255)" stroke-width="1" opacity="0.49411764705882355" d="M 372.5 183 L 373 185.5 L 372 185.5 L 372.5 183 Z " /><path fill="rgb(255,255,255)" stroke="rgb(255,255,255)" stroke-width="1" opacity="0.49411764705882355" d="M 521.5 183 L 522 185.5 L 521 185.5 L 521.5 183 Z " /><path fill="rgb(255,255,255)" stroke="rgb(255,255,255)" stroke-width="1" opacity="0.49411764705882355" d="M 126.5 184 L 127 189.5 L 126 189.5 L 126.5 184 Z " /><path fill="rgb(255,255,255)" stroke="rgb(255,255,255)" stroke-width="1" opacity="0.49411764705882355" d="M 478.5 185 L 479 187.5 L 478 187.5 L 478.5 185 Z " /><path fill="rgb(255,255,255)" stroke="rgb(255,255,255)" stroke-width="1" opacity="0.49411764705882355" d="M 522.5 187 L 523 190.5 L 522 190.5 L 522.5 187 Z " /><path fill="rgb(255,255,255)" stroke="rgb(255,255,255)" stroke-width="1" opacity="0.49411764705882355" d="M 414.5 189 L 415 191.5 L 414 191.5 L 414.5 189 Z " /><path fill="rgb(255,255,255)" stroke="rgb(255,255,255)" stroke-width="1" opacity="0.49411764705882355" d="M 479.5 189 L 480 191.5 L 479 191.5 L 479.5 189 Z " /><path fill="rgb(255,255,255)" stroke="rgb(255,255,255)" stroke-width="1" opacity="0.49411764705882355" d="M 370.5 190 L 371 191.5 L 365.5 201 L 366 199.5 L 370.5 190 Z " /><path fill="rgb(255,255,255)" stroke="rgb(255,255,255)" stroke-width="1" opacity="0.49411764705882355" d="M 523.5 192 L 524 195.5 L 523 195.5 L 523.5 192 Z " /><path fill="rgb(255,255,255)" stroke="rgb(255,255,255)" stroke-width="1" opacity="0.49411764705882355" d="M 127.5 193 L 128 195.5 L 127 195.5 L 127.5 193 Z " /><path fill="rgb(255,255,255)" stroke="rgb(255,255,255)" stroke-width="1" opacity="0.49411764705882355" d="M 413.5 194 L 414 196.5 L 413 196.5 L 413.5 194 Z " /><path fill="rgb(255,255,255)" stroke="rgb(255,255,255)" stroke-width="1" opacity="0.49411764705882355" d="M 480.5 194 L 481 196.5 L 480 196.5 L 480.5 194 Z " /><path fill="rgb(255,255,255)" stroke="rgb(255,255,255)" stroke-width="1" opacity="0.49411764705882355" d="M 128.5 198 L 129 200.5 L 128 200.5 L 128.5 198 Z " /><path fill="rgb(255,255,255)" stroke="rgb(255,255,255)" stroke-width="1" opacity="0.49411764705882355" d="M 481.5 198 L 482 201.5 L 481 201.5 L 481.5 198 Z " /><path fill="rgb(255,255,255)" stroke="rgb(255,255,255)" stroke-width="1" opacity="0.49411764705882355" d="M 524.5 198 L 525 201.5 L 524 201.5 L 524.5 198 Z " /><path fill="rgb(255,255,255)" stroke="rgb(255,255,255)" stroke-width="1" opacity="0.49411764705882355" d="M 364.5 202 L 363 204.5 L 360 209.5 L 345.5 224 L 341.5 227 L 344.5 223 L 359 209.5 L 364.5 202 Z " /><path fill="rgb(255,255,255)" stroke="rgb(255,255,255)" stroke-width="1" opacity="0.49411764705882355" d="M 129.5 203 L 130 205.5 L 129 205.5 L 129.5 203 Z " /><path fill="rgb(255,255,255)" stroke="rgb(255,255,255)" stroke-width="1" opacity="0.49411764705882355" d="M 482.5 204 L 483 207.5 L 482 207.5 L 482.5 204 Z " /><path fill="rgb(255,255,255)" stroke="rgb(255,255,255)" stroke-width="1" opacity="0.49411764705882355" d="M 525.5 206 L 526 210.5 L 525 210.5 L 525.5 206 Z " /><path fill="rgb(255,255,255)" stroke="rgb(255,255,255)" stroke-width="1" opacity="0.49411764705882355" d="M 408.5 209 L 409 210.5 L 402.5 222 L 403 220.5 L 408.5 209 Z " /><path fill="rgb(255,255,255)" stroke="rgb(255,255,255)" stroke-width="1" opacity="0.49411764705882355" d="M 483.5 211 L 484 216.5 L 483 216.5 L 483.5 211 Z " /><path fill="rgb(255,255,255)" stroke="rgb(255,255,255)" stroke-width="1" opacity="0.49411764705882355" d="M 192.5 216 L 188.5 221 L 192.5 216 Z " /><path fill="rgb(255,255,255)" stroke="rgb(255,255,255)" stroke-width="1" opacity="0.49411764705882355" d="M 526.5 217 L 527 242.5 L 526 242.5 L 526.5 217 Z " /><path fill="rgb(255,255,255)" stroke="rgb(255,255,255)" stroke-width="1" opacity="0.49411764705882355" d="M 134.5 219 L 135 221.5 L 134 221.5 L 134.5 219 Z " /><path fill="rgb(255,255,255)" stroke="rgb(255,255,255)" stroke-width="1" opacity="0.49411764705882355" d="M 187.5 222 L 187 223.5 L 193.5 231 L 203 237.5 L 201.5 237 Q 192.1 232.4 186 224.5 L 187.5 222 Z " /><path fill="rgb(255,255,255)" stroke="rgb(255,255,255)" stroke-width="1" opacity="0.49411764705882355" d="M 133.5 223 L 132.5 225 L 133.5 223 Z " /><path fill="rgb(255,255,255)" stroke="rgb(255,255,255)" stroke-width="1" opacity="0.49411764705882355" d="M 401.5 223 L 400.5 225 L 401.5 223 Z " /><path fill="rgb(255,255,255)" stroke="rgb(255,255,255)" stroke-width="1" opacity="0.49411764705882355" d="M 484.5 225 L 485 234.5 L 484 234.5 L 484.5 225 Z " /><path fill="rgb(255,255,255)" stroke="rgb(255,255,255)" stroke-width="1" opacity="0.49411764705882355" d="M 131.5 226 L 131 227.5 L 129.5 230 L 130 228.5 L 131.5 226 Z " /><path fill="rgb(255,255,255)" stroke="rgb(255,255,255)" stroke-width="1" opacity="0.49411764705882355" d="M 399.5 226 L 398.5 228 L 399.5 226 Z " /><path fill="rgb(255,255,255)" stroke="rgb(255,255,255)" stroke-width="1" opacity="0.49411764705882355" d="M 339.5 227 L 338.5 229 L 339.5 227 Z " /><path fill="rgb(255,255,255)" stroke="rgb(255,255,255)" stroke-width="1" opacity="0.49411764705882355" d="M 336.5 229 L 335.5 231 L 336.5 229 Z " /><path fill="rgb(255,255,255)" stroke="rgb(255,255,255)" stroke-width="1" opacity="0.49411764705882355" d="M 397.5 229 L 395.5 232 L 397.5 229 Z " /><path fill="rgb(255,255,255)" stroke="rgb(255,255,255)" stroke-width="1" opacity="0.49411764705882355" d="M 128.5 231 L 128 232.5 L 126.5 235 L 127 233.5 L 128.5 231 Z " /><path fill="rgb(255,255,255)" stroke="rgb(255,255,255)" stroke-width="1" opacity="0.49411764705882355" d="M 333.5 231 L 332.5 233 L 333.5 231 Z " /><path fill="rgb(255,255,255)" stroke="rgb(255,255,255)" stroke-width="1" opacity="0.49411764705882355" d="M 394.5 233 L 392 236.5 L 374.5 255 L 391 237.5 L 394.5 233 Z " /><path fill="rgb(255,255,255)" stroke="rgb(255,255,255)" stroke-width="1" opacity="0.49411764705882355" d="M 328.5 234 L 327.5 236 L 318.5 240 L 318.5 239 L 328.5 234 Z " /><path fill="rgb(255,255,255)" stroke="rgb(255,255,255)" stroke-width="1" opacity="0.49411764705882355" d="M 125.5 236 L 125 237.5 L 121.5 244 L 122 242.5 L 125.5 236 Z " /><path fill="rgb(255,255,255)" stroke="rgb(255,255,255)" stroke-width="1" opacity="0.49411764705882355" d="M 204.5 238 L 211 241.5 L 209.5 242 Q 204.9 240.8 204.5 238 Z " /><path fill="rgb(255,255,255)" stroke="rgb(255,255,255)" stroke-width="1" opacity="0.49411764705882355" d="M 313.5 241 L 315 241.5 L 311.5 243 L 311.5 242 L 313.5 241 Z " /><path fill="rgb(255,255,255)" stroke="rgb(255,255,255)" stroke-width="1" opacity="0.49411764705882355" d="M 214.5 243 L 225 246.5 L 222.5 247 L 214.5 244 L 214.5 243 Z " /><path fill="rgb(255,255,255)" stroke="rgb(255,255,255)" stroke-width="1" opacity="0.49411764705882355" d="M 483.5 243 L 484 248.5 L 483 248.5 L 483.5 243 Z " /><path fill="rgb(255,255,255)" stroke="rgb(255,255,255)" stroke-width="1" opacity="0.49411764705882355" d="M 298.5 246 L 301 246.5 L 298.5 247 L 298.5 246 Z " /><path fill="rgb(255,255,255)" stroke="rgb(255,255,255)" stroke-width="1" opacity="0.49411764705882355" d="M 226.5 247 L 229 247.5 L 226.5 248 L 226.5 247 Z " /><path fill="rgb(255,255,255)" stroke="rgb(255,255,255)" stroke-width="1" opacity="0.49411764705882355" d="M 294.5 247 L 297 247.5 L 294.5 248 L 294.5 247 Z " /><path fill="rgb(255,255,255)" stroke="rgb(255,255,255)" stroke-width="1" opacity="0.49411764705882355" d="M 230.5 248 L 233 248.5 L 230.5 249 L 230.5 248 Z " /><path fill="rgb(255,255,255)" stroke="rgb(255,255,255)" stroke-width="1" opacity="0.49411764705882355" d="M 289.5 248 L 292 248.5 L 289.5 249 L 289.5 248 Z " /><path fill="rgb(255,255,255)" stroke="rgb(255,255,255)" stroke-width="1" opacity="0.49411764705882355" d="M 235.5 249 L 239 249.5 L 235.5 250 L 235.5 249 Z " /><path fill="rgb(255,255,255)" stroke="rgb(255,255,255)" stroke-width="1" opacity="0.49411764705882355" d="M 284.5 249 L 287 249.5 L 284.5 250 L 284.5 249 Z " /><path fill="rgb(255,255,255)" stroke="rgb(255,255,255)" stroke-width="1" opacity="0.49411764705882355" d="M 525.5 249 L 526 253.5 L 525 253.5 L 525.5 249 Z " /><path fill="rgb(255,255,255)" stroke="rgb(255,255,255)" stroke-width="1" opacity="0.49411764705882355" d="M 241.5 250 L 246 250.5 L 241.5 251 L 241.5 250 Z " /><path fill="rgb(255,255,255)" stroke="rgb(255,255,255)" stroke-width="1" opacity="0.49411764705882355" d="M 276.5 250 L 281 250.5 L 276.5 251 L 276.5 250 Z " /><path fill="rgb(255,255,255)" stroke="rgb(255,255,255)" stroke-width="1" opacity="0.49411764705882355" d="M 117.5 251 L 118 252.5 L 115.5 257 L 115 255.5 L 117.5 251 Z " /><path fill="rgb(255,255,255)" stroke="rgb(255,255,255)" stroke-width="1" opacity="0.49411764705882355" d="M 252.5 251 L 270 251.5 L 252.5 252 L 252.5 251 Z " /><path fill="rgb(255,255,255)" stroke="rgb(255,255,255)" stroke-width="1" opacity="0.49411764705882355" d="M 482.5 252 L 483 255.5 L 482 255.5 L 482.5 252 Z " /><path fill="rgb(255,255,255)" stroke="rgb(255,255,255)" stroke-width="1" opacity="0.49411764705882355" d="M 372.5 255 L 369.5 259 L 372.5 255 Z " /><path fill="rgb(255,255,255)" stroke="rgb(255,255,255)" stroke-width="1" opacity="0.49411764705882355" d="M 481.5 258 L 482 261.5 L 481 261.5 L 481.5 258 Z " /><path fill="rgb(255,255,255)" stroke="rgb(255,255,255)" stroke-width="1" opacity="0.49411764705882355" d="M 524.5 258 L 525 261.5 L 524 261.5 L 524.5 258 Z " /><path fill="rgb(255,255,255)" stroke="rgb(255,255,255)" stroke-width="1" opacity="0.49411764705882355" d="M 161.5 259 L 170 266.5 L 166.5 264 L 161.5 260 L 154.5 274 L 154 272.5 L 161.5 259 Z " /><path fill="rgb(255,255,255)" stroke="rgb(255,255,255)" stroke-width="1" opacity="0.49411764705882355" d="M 367.5 259 L 365.5 262 L 367.5 259 Z " /><path fill="rgb(255,255,255)" stroke="rgb(255,255,255)" stroke-width="1" opacity="0.49411764705882355" d="M 113.5 260 L 114 261.5 L 112.5 264 L 112 262.5 L 113.5 260 Z " /><path fill="rgb(255,255,255)" stroke="rgb(255,255,255)" stroke-width="1" opacity="0.49411764705882355" d="M 363.5 262 L 361.5 265 L 359.5 266 L 360.5 264 L 363.5 262 Z " /><path fill="rgb(255,255,255)" stroke="rgb(255,255,255)" stroke-width="1" opacity="0.49411764705882355" d="M 480.5 264 L 481 266.5 L 480 266.5 L 480.5 264 Z " /><path fill="rgb(255,255,255)" stroke="rgb(255,255,255)" stroke-width="1" opacity="0.49411764705882355" d="M 523.5 264 L 524 267.5 L 523 267.5 L 523.5 264 Z " /><path fill="rgb(255,255,255)" stroke="rgb(255,255,255)" stroke-width="1" opacity="0.49411764705882355" d="M 357.5 266 L 356.5 268 L 357.5 266 Z " /><path fill="rgb(255,255,255)" stroke="rgb(255,255,255)" stroke-width="1" opacity="0.49411764705882355" d="M 171.5 267 L 182 274.5 L 180.5 274 Q 173.4 271.7 171.5 267 Z " /><path fill="rgb(255,255,255)" stroke="rgb(255,255,255)" stroke-width="1" opacity="0.49411764705882355" d="M 110.5 268 L 111 269.5 L 107.5 279 L 107 276.5 L 110.5 268 Z " /><path fill="rgb(255,255,255)" stroke="rgb(255,255,255)" stroke-width="1" opacity="0.49411764705882355" d="M 354.5 268 L 353.5 270 L 351.5 271 L 352.5 269 L 354.5 268 Z " /><path fill="rgb(255,255,255)" stroke="rgb(255,255,255)" stroke-width="1" opacity="0.49411764705882355" d="M 479.5 268 L 480 270.5 L 479 270.5 L 479.5 268 Z " /><path fill="rgb(255,255,255)" stroke="rgb(255,255,255)" stroke-width="1" opacity="0.49411764705882355" d="M 522.5 270 L 523 272.5 L 522 272.5 L 522.5 270 Z " /><path fill="rgb(255,255,255)" stroke="rgb(255,255,255)" stroke-width="1" opacity="0.49411764705882355" d="M 347.5 272 L 346.5 274 L 339.5 277 L 339.5 276 L 347.5 272 Z " /><path fill="rgb(255,255,255)" stroke="rgb(255,255,255)" stroke-width="1" opacity="0.49411764705882355" d="M 478.5 272 L 479 274.5 L 478 274.5 L 478.5 272 Z " /><path fill="rgb(255,255,255)" stroke="rgb(255,255,255)" stroke-width="1" opacity="0.49411764705882355" d="M 521.5 275 L 522 277.5 L 521 277.5 L 521.5 275 Z " /><path fill="rgb(255,255,255)" stroke="rgb(255,255,255)" stroke-width="1" opacity="0.49411764705882355" d="M 185.5 276 L 192 279.5 L 190.5 280 Q 185.9 278.8 185.5 276 Z " /><path fill="rgb(255,255,255)" stroke="rgb(255,255,255)" stroke-width="1" opacity="0.49411764705882355" d="M 152.5 277 L 153 278.5 L 151.5 281 L 151 279.5 L 152.5 277 Z " /><path fill="rgb(255,255,255)" stroke="rgb(255,255,255)" stroke-width="1" opacity="0.49411764705882355" d="M 332.5 279 L 334 279.5 L 330.5 281 L 330.5 280 L 332.5 279 Z " /><path fill="rgb(255,255,255)" stroke="rgb(255,255,255)" stroke-width="1" opacity="0.49411764705882355" d="M 476.5 279 L 477 281.5 L 476 281.5 L 476.5 279 Z " /><path fill="rgb(255,255,255)" stroke="rgb(255,255,255)" stroke-width="1" opacity="0.49411764705882355" d="M 520.5 279 L 521 281.5 L 520 281.5 L 520.5 279 Z " /><path fill="rgb(255,255,255)" stroke="rgb(255,255,255)" stroke-width="1" opacity="0.49411764705882355" d="M 195.5 281 L 199 282.5 L 197.5 283 L 195.5 281 Z " /><path fill="rgb(255,255,255)" stroke="rgb(255,255,255)" stroke-width="1" opacity="0.49411764705882355" d="M 327.5 281 L 329 281.5 L 322.5 284 L 322.5 283 L 327.5 281 Z " /><path fill="rgb(255,255,255)" stroke="rgb(255,255,255)" stroke-width="1" opacity="0.49411764705882355" d="M 105.5 283 L 106 285.5 L 105 285.5 L 105.5 283 Z " /><path fill="rgb(255,255,255)" stroke="rgb(255,255,255)" stroke-width="1" opacity="0.49411764705882355" d="M 200.5 283 L 211 286.5 L 208.5 287 L 200.5 284 L 200.5 283 Z " /><path fill="rgb(255,255,255)" stroke="rgb(255,255,255)" stroke-width="1" opacity="0.49411764705882355" d="M 519.5 283 L 520 285.5 L 519 285.5 L 519.5 283 Z " /><path fill="rgb(255,255,255)" stroke="rgb(255,255,255)" stroke-width="1" opacity="0.49411764705882355" d="M 149.5 285 L 150 286.5 L 148.5 290 L 148 287.5 L 149.5 285 Z " /><path fill="rgb(255,255,255)" stroke="rgb(255,255,255)" stroke-width="1" opacity="0.49411764705882355" d="M 315.5 285 L 318 285.5 L 312.5 287 L 312.5 286 L 315.5 285 Z " /><path fill="rgb(255,255,255)" stroke="rgb(255,255,255)" stroke-width="1" opacity="0.49411764705882355" d="M 474.5 286 L 475 287.5 L 472.5 293 L 472 291.5 L 474.5 286 Z " /><path fill="rgb(255,255,255)" stroke="rgb(255,255,255)" stroke-width="1" opacity="0.49411764705882355" d="M 104.5 287 L 105 289.5 L 104 289.5 L 104.5 287 Z " /><path fill="rgb(255,255,255)" stroke="rgb(255,255,255)" stroke-width="1" opacity="0.49411764705882355" d="M 308.5 287 L 311 287.5 L 308.5 288 L 308.5 287 Z " /><path fill="rgb(255,255,255)" stroke="rgb(255,255,255)" stroke-width="1" opacity="0.49411764705882355" d="M 215.5 288 L 218 288.5 L 215.5 289 L 215.5 288 Z " /><path fill="rgb(255,255,255)" stroke="rgb(255,255,255)" stroke-width="1" opacity="0.49411764705882355" d="M 304.5 288 L 307 288.5 L 304.5 289 L 304.5 288 Z " /><path fill="rgb(255,255,255)" stroke="rgb(255,255,255)" stroke-width="1" opacity="0.49411764705882355" d="M 219.5 289 L 222 289.5 L 219.5 290 L 219.5 289 Z " /><path fill="rgb(255,255,255)" stroke="rgb(255,255,255)" stroke-width="1" opacity="0.49411764705882355" d="M 300.5 289 L 303 289.5 L 300.5 290 L 300.5 289 Z " /><path fill="rgb(255,255,255)" stroke="rgb(255,255,255)" stroke-width="1" opacity="0.49411764705882355" d="M 224.5 290 L 227 290.5 L 224.5 291 L 224.5 290 Z " /><path fill="rgb(255,255,255)" stroke="rgb(255,255,255)" stroke-width="1" opacity="0.49411764705882355" d="M 295.5 290 L 298 290.5 L 295.5 291 L 295.5 290 Z " /><path fill="rgb(255,255,255)" stroke="rgb(255,255,255)" stroke-width="1" opacity="0.49411764705882355" d="M 517.5 290 L 518 292.5 L 517 292.5 L 517.5 290 Z " /><path fill="rgb(255,255,255)" stroke="rgb(255,255,255)" stroke-width="1" opacity="0.49411764705882355" d="M 103.5 291 L 104 293.5 L 103 293.5 L 103.5 291 Z " /><path fill="rgb(255,255,255)" stroke="rgb(255,255,255)" stroke-width="1" opacity="0.49411764705882355" d="M 229.5 291 L 233 291.5 L 229.5 292 L 229.5 291 Z " /><path fill="rgb(255,255,255)" stroke="rgb(255,255,255)" stroke-width="1" opacity="0.49411764705882355" d="M 289.5 291 L 293 291.5 L 289.5 292 L 289.5 291 Z " /><path fill="rgb(255,255,255)" stroke="rgb(255,255,255)" stroke-width="1" opacity="0.49411764705882355" d="M 236.5 292 L 241 292.5 L 236.5 293 L 236.5 292 Z " /><path fill="rgb(255,255,255)" stroke="rgb(255,255,255)" stroke-width="1" opacity="0.49411764705882355" d="M 281.5 292 L 286 292.5 L 281.5 293 L 281.5 292 Z " /><path fill="rgb(255,255,255)" stroke="rgb(255,255,255)" stroke-width="1" opacity="0.49411764705882355" d="M 246.5 293 L 257 293.5 L 246.5 294 L 246.5 293 Z " /><path fill="rgb(255,255,255)" stroke="rgb(255,255,255)" stroke-width="1" opacity="0.49411764705882355" d="M 265.5 293 L 276 293.5 L 265.5 294 L 265.5 293 Z " /><path fill="rgb(255,255,255)" stroke="rgb(255,255,255)" stroke-width="1" opacity="0.49411764705882355" d="M 146.5 294 L 147 296.5 L 146 296.5 L 146.5 294 Z " /><path fill="rgb(255,255,255)" stroke="rgb(255,255,255)" stroke-width="1" opacity="0.49411764705882355" d="M 471.5 294 L 472 295.5 L 470.5 298 L 470 296.5 L 471.5 294 Z " /><path fill="rgb(255,255,255)" stroke="rgb(255,255,255)" stroke-width="1" opacity="0.49411764705882355" d="M 102.5 296 L 103 299.5 L 102 299.5 L 102.5 296 Z " /><path fill="rgb(255,255,255)" stroke="rgb(255,255,255)" stroke-width="1" opacity="0.49411764705882355" d="M 145.5 298 L 146 300.5 L 145 300.5 L 145.5 298 Z " /><path fill="rgb(255,255,255)" stroke="rgb(255,255,255)" stroke-width="1" opacity="0.49411764705882355" d="M 468.5 301 L 469 302.5 L 466.5 307 L 466 305.5 L 468.5 301 Z " /><path fill="rgb(255,255,255)" stroke="rgb(255,255,255)" stroke-width="1" opacity="0.49411764705882355" d="M 101.5 302 L 102 305.5 L 101 305.5 L 101.5 302 Z " /><path fill="rgb(255,255,255)" stroke="rgb(255,255,255)" stroke-width="1" opacity="0.49411764705882355" d="M 144.5 302 L 145 304.5 L 144 304.5 L 144.5 302 Z " /><path fill="rgb(255,255,255)" stroke="rgb(255,255,255)" stroke-width="1" opacity="0.49411764705882355" d="M 513.5 303 L 514 304.5 L 512.5 307 L 512 305.5 L 513.5 303 Z " /><path fill="rgb(255,255,255)" stroke="rgb(255,255,255)" stroke-width="1" opacity="0.49411764705882355" d="M 143.5 308 L 144 311.5 L 143 311.5 L 143.5 308 Z " /><path fill="rgb(255,255,255)" stroke="rgb(255,255,255)" stroke-width="1" opacity="0.49411764705882355" d="M 100.5 310 L 101 316.5 L 100 316.5 L 100.5 310 Z " /><path fill="rgb(255,255,255)" stroke="rgb(255,255,255)" stroke-width="1" opacity="0.49411764705882355" d="M 463.5 312 L 463 313.5 L 459.5 320 L 460 318.5 L 463.5 312 Z " /><path fill="rgb(255,255,255)" stroke="rgb(255,255,255)" stroke-width="1" opacity="0.49411764705882355" d="M 509.5 313 L 510 314.5 L 508.5 317 L 508 315.5 L 509.5 313 Z " /><path fill="rgb(255,255,255)" stroke="rgb(255,255,255)" stroke-width="1" opacity="0.49411764705882355" d="M 142.5 315 L 143 335.5 L 142 335.5 L 142.5 315 Z " /><path fill="rgb(255,255,255)" stroke="rgb(255,255,255)" stroke-width="1" opacity="0.49411764705882355" d="M 507.5 318 L 508 319.5 L 504.5 326 L 504 324.5 L 507.5 318 Z " /><path fill="rgb(255,255,255)" stroke="rgb(255,255,255)" stroke-width="1" opacity="0.49411764705882355" d="M 457.5 323 L 457 324.5 L 453.5 330 L 454 328.5 L 457.5 323 Z " /><path fill="rgb(255,255,255)" stroke="rgb(255,255,255)" stroke-width="1" opacity="0.49411764705882355" d="M 452.5 331 L 451.5 333 L 452.5 331 Z " /><path fill="rgb(255,255,255)" stroke="rgb(255,255,255)" stroke-width="1" opacity="0.49411764705882355" d="M 500.5 333 L 500 334.5 L 496.5 341 L 497 339.5 L 500.5 333 Z " /><path fill="rgb(255,255,255)" stroke="rgb(255,255,255)" stroke-width="1" opacity="0.49411764705882355" d="M 450.5 334 L 449.5 336 L 450.5 334 Z " /><path fill="rgb(255,255,255)" stroke="rgb(255,255,255)" stroke-width="1" opacity="0.49411764705882355" d="M 100.5 335 L 101 340.5 L 100 340.5 L 100.5 335 Z " /><path fill="rgb(255,255,255)" stroke="rgb(255,255,255)" stroke-width="1" opacity="0.49411764705882355" d="M 448.5 337 L 447 339.5 L 444.5 343 L 446 340.5 L 448.5 337 Z " /><path fill="rgb(255,255,255)" stroke="rgb(255,255,255)" stroke-width="1" opacity="0.49411764705882355" d="M 143.5 340 L 144 342.5 L 143 342.5 L 143.5 340 Z " /><path fill="rgb(255,255,255)" stroke="rgb(255,255,255)" stroke-width="1" opacity="0.49411764705882355" d="M 495.5 342 L 495 343.5 L 490.5 351 L 491 349.5 L 495.5 342 Z " /><path fill="rgb(255,255,255)" stroke="rgb(255,255,255)" stroke-width="1" opacity="0.49411764705882355" d="M 443.5 344 L 441.5 347 L 443.5 344 Z " /><path fill="rgb(255,255,255)" stroke="rgb(255,255,255)" stroke-width="1" opacity="0.49411764705882355" d="M 101.5 345 L 102 348.5 L 101 348.5 L 101.5 345 Z " /><path fill="rgb(255,255,255)" stroke="rgb(255,255,255)" stroke-width="1" opacity="0.49411764705882355" d="M 144.5 345 L 145 347.5 L 144 347.5 L 144.5 345 Z " /><path fill="rgb(255,255,255)" stroke="rgb(255,255,255)" stroke-width="1" opacity="0.49411764705882355" d="M 440.5 348 L 437.5 352 L 440.5 348 Z " /><path fill="rgb(255,255,255)" stroke="rgb(255,255,255)" stroke-width="1" opacity="0.49411764705882355" d="M 102.5 351 L 103 354.5 L 102 354.5 L 102.5 351 Z " /><path fill="rgb(255,255,255)" stroke="rgb(255,255,255)" stroke-width="1" opacity="0.49411764705882355" d="M 489.5 352 L 489 353.5 L 482.5 363 L 484 360.5 L 489.5 352 Z " /><path fill="rgb(255,255,255)" stroke="rgb(255,255,255)" stroke-width="1" opacity="0.49411764705882355" d="M 436.5 353 L 431.5 359 L 436.5 353 Z " /><path fill="rgb(255,255,255)" stroke="rgb(255,255,255)" stroke-width="1" opacity="0.49411764705882355" d="M 103.5 356 L 104 358.5 L 103 358.5 L 103.5 356 Z " /><path fill="rgb(255,255,255)" stroke="rgb(255,255,255)" stroke-width="1" opacity="0.49411764705882355" d="M 104.5 360 L 105 362.5 L 104 362.5 L 104.5 360 Z " /><path fill="rgb(255,255,255)" stroke="rgb(255,255,255)" stroke-width="1" opacity="0.49411764705882355" d="M 148.5 360 L 150 363.5 L 149 363.5 L 148.5 360 Z " /><path fill="rgb(255,255,255)" stroke="rgb(255,255,255)" stroke-width="1" opacity="0.49411764705882355" d="M 430.5 360 L 410.5 381 L 430.5 360 Z " /><path fill="rgb(255,255,255)" stroke="rgb(255,255,255)" stroke-width="1" opacity="0.49411764705882355" d="M 105.5 364 L 106 366.5 L 105 366.5 L 105.5 364 Z " /><path fill="rgb(255,255,255)" stroke="rgb(255,255,255)" stroke-width="1" opacity="0.49411764705882355" d="M 481.5 364 L 480 366.5 L 473.5 375 L 476 371.5 L 481.5 364 Z " /><path fill="rgb(255,255,255)" stroke="rgb(255,255,255)" stroke-width="1" opacity="0.49411764705882355" d="M 150.5 365 L 156 375.5 L 154 374.5 L 150 366.5 L 150.5 365 Z " /><path fill="rgb(255,255,255)" stroke="rgb(255,255,255)" stroke-width="1" opacity="0.49411764705882355" d="M 108.5 374 L 110 377.5 L 109 377.5 L 108.5 374 Z " /><path fill="rgb(255,255,255)" stroke="rgb(255,255,255)" stroke-width="1" opacity="0.49411764705882355" d="M 472.5 376 L 469.5 380 L 472.5 376 Z " /><path fill="rgb(255,255,255)" stroke="rgb(255,255,255)" stroke-width="1" opacity="0.49411764705882355" d="M 156.5 377 L 159 380.5 L 157 379.5 L 156.5 377 Z " /><path fill="rgb(255,255,255)" stroke="rgb(255,255,255)" stroke-width="1" opacity="0.49411764705882355" d="M 110.5 379 L 112 382.5 L 111 382.5 L 110.5 379 Z " /><path fill="rgb(255,255,255)" stroke="rgb(255,255,255)" stroke-width="1" opacity="0.49411764705882355" d="M 408.5 381 L 403.5 387 L 379.5 404 L 380.5 402 Q 396.4 393.4 408.5 381 Z " /><path fill="rgb(255,255,255)" stroke="rgb(255,255,255)" stroke-width="1" opacity="0.49411764705882355" d="M 468.5 381 L 463.5 387 L 468.5 381 Z " /><path fill="rgb(255,255,255)" stroke="rgb(255,255,255)" stroke-width="1" opacity="0.49411764705882355" d="M 159.5 382 L 165 388.5 L 161 385.5 L 159.5 382 Z " /><path fill="rgb(255,255,255)" stroke="rgb(255,255,255)" stroke-width="1" opacity="0.49411764705882355" d="M 112.5 384 L 119 396.5 L 117 395.5 L 112 385.5 L 112.5 384 Z " /><path fill="rgb(255,255,255)" stroke="rgb(255,255,255)" stroke-width="1" opacity="0.49411764705882355" d="M 462.5 388 L 438.5 413 L 462.5 388 Z " /><path fill="rgb(255,255,255)" stroke="rgb(255,255,255)" stroke-width="1" opacity="0.49411764705882355" d="M 165.5 390 L 184 407.5 L 180.5 405 L 165.5 390 Z " /><path fill="rgb(255,255,255)" stroke="rgb(255,255,255)" stroke-width="1" opacity="0.49411764705882355" d="M 119.5 398 L 122 401.5 L 120 400.5 L 119.5 398 Z " /><path fill="rgb(255,255,255)" stroke="rgb(255,255,255)" stroke-width="1" opacity="0.49411764705882355" d="M 122.5 403 L 126 407.5 L 123 405.5 L 122.5 403 Z " /><path fill="rgb(255,255,255)" stroke="rgb(255,255,255)" stroke-width="1" opacity="0.49411764705882355" d="M 377.5 404 L 376.5 406 L 377.5 404 Z " /><path fill="rgb(255,255,255)" stroke="rgb(255,255,255)" stroke-width="1" opacity="0.49411764705882355" d="M 372.5 407 L 371.5 409 L 369.5 410 L 370.5 408 L 372.5 407 Z " /><path fill="rgb(255,255,255)" stroke="rgb(255,255,255)" stroke-width="1" opacity="0.49411764705882355" d="M 185.5 408 L 190 411.5 L 188.5 411 L 185.5 408 Z " /><path fill="rgb(255,255,255)" stroke="rgb(255,255,255)" stroke-width="1" opacity="0.49411764705882355" d="M 126.5 409 L 132 415.5 L 128 412.5 L 126.5 409 Z " /><path fill="rgb(255,255,255)" stroke="rgb(255,255,255)" stroke-width="1" opacity="0.49411764705882355" d="M 191.5 412 L 192.5 414 L 191.5 412 Z " /><path fill="rgb(255,255,255)" stroke="rgb(255,255,255)" stroke-width="1" opacity="0.49411764705882355" d="M 363.5 412 L 362.5 414 L 359.5 415 L 359.5 414 L 363.5 412 Z " /><path fill="rgb(255,255,255)" stroke="rgb(255,255,255)" stroke-width="1" opacity="0.49411764705882355" d="M 436.5 413 L 431.5 419 L 426.5 423 L 430.5 418 L 436.5 413 Z " /><path fill="rgb(255,255,255)" stroke="rgb(255,255,255)" stroke-width="1" opacity="0.49411764705882355" d="M 194.5 414 L 202 418.5 L 200.5 418 Q 194.9 417.2 194.5 414 Z " /><path fill="rgb(255,255,255)" stroke="rgb(255,255,255)" stroke-width="1" opacity="0.49411764705882355" d="M 132.5 417 L 151.5 437 L 132.5 417 Z " /><path fill="rgb(255,255,255)" stroke="rgb(255,255,255)" stroke-width="1" opacity="0.49411764705882355" d="M 350.5 418 L 352 418.5 L 348.5 420 L 348.5 419 L 350.5 418 Z " /><path fill="rgb(255,255,255)" stroke="rgb(255,255,255)" stroke-width="1" opacity="0.49411764705882355" d="M 203.5 419 L 211 422.5 L 209.5 423 L 203.5 420 L 203.5 419 Z " /><path fill="rgb(255,255,255)" stroke="rgb(255,255,255)" stroke-width="1" opacity="0.49411764705882355" d="M 212.5 423 L 216 424.5 L 214.5 425 L 212.5 423 Z " /><path fill="rgb(255,255,255)" stroke="rgb(255,255,255)" stroke-width="1" opacity="0.49411764705882355" d="M 424.5 423 L 422.5 426 L 424.5 423 Z " /><path fill="rgb(255,255,255)" stroke="rgb(255,255,255)" stroke-width="1" opacity="0.49411764705882355" d="M 420.5 426 L 418.5 429 L 420.5 426 Z " /><path fill="rgb(255,255,255)" stroke="rgb(255,255,255)" stroke-width="1" opacity="0.49411764705882355" d="M 226.5 428 L 229 428.5 L 226.5 429 L 226.5 428 Z " /><path fill="rgb(255,255,255)" stroke="rgb(255,255,255)" stroke-width="1" opacity="0.49411764705882355" d="M 322.5 428 L 325 428.5 L 322.5 429 L 322.5 428 Z " /><path fill="rgb(255,255,255)" stroke="rgb(255,255,255)" stroke-width="1" opacity="0.49411764705882355" d="M 318.5 429 L 321 429.5 L 318.5 430 L 318.5 429 Z " /><path fill="rgb(255,255,255)" stroke="rgb(255,255,255)" stroke-width="1" opacity="0.49411764705882355" d="M 416.5 429 L 414.5 432 L 411.5 434 L 413.5 431 L 416.5 429 Z " /><path fill="rgb(255,255,255)" stroke="rgb(255,255,255)" stroke-width="1" opacity="0.49411764705882355" d="M 234.5 430 L 237 430.5 L 234.5 431 L 234.5 430 Z " /><path fill="rgb(255,255,255)" stroke="rgb(255,255,255)" stroke-width="1" opacity="0.49411764705882355" d="M 314.5 430 L 317 430.5 L 314.5 431 L 314.5 430 Z " /><path fill="rgb(255,255,255)" stroke="rgb(255,255,255)" stroke-width="1" opacity="0.49411764705882355" d="M 238.5 431 L 241 431.5 L 238.5 432 L 238.5 431 Z " /><path fill="rgb(255,255,255)" stroke="rgb(255,255,255)" stroke-width="1" opacity="0.49411764705882355" d="M 309.5 431 L 312 431.5 L 309.5 432 L 309.5 431 Z " /><path fill="rgb(255,255,255)" stroke="rgb(255,255,255)" stroke-width="1" opacity="0.49411764705882355" d="M 243.5 432 L 247 432.5 L 243.5 433 L 243.5 432 Z " /><path fill="rgb(255,255,255)" stroke="rgb(255,255,255)" stroke-width="1" opacity="0.49411764705882355" d="M 303.5 432 L 307 432.5 L 303.5 433 L 303.5 432 Z " /><path fill="rgb(255,255,255)" stroke="rgb(255,255,255)" stroke-width="1" opacity="0.49411764705882355" d="M 250.5 433 L 254 433.5 L 250.5 434 L 250.5 433 Z " /><path fill="rgb(255,255,255)" stroke="rgb(255,255,255)" stroke-width="1" opacity="0.49411764705882355" d="M 296.5 433 L 301 433.5 L 296.5 434 L 296.5 433 Z " /><path fill="rgb(255,255,255)" stroke="rgb(255,255,255)" stroke-width="1" opacity="0.49411764705882355" d="M 258.5 434 L 266 434.5 L 258.5 435 L 258.5 434 Z " /><path fill="rgb(255,255,255)" stroke="rgb(255,255,255)" stroke-width="1" opacity="0.49411764705882355" d="M 285.5 434 L 292 434.5 L 285.5 435 L 285.5 434 Z " /><path fill="rgb(255,255,255)" stroke="rgb(255,255,255)" stroke-width="1" opacity="0.49411764705882355" d="M 409.5 434 L 408.5 436 L 409.5 434 Z " /><path fill="rgb(255,255,255)" stroke="rgb(255,255,255)" stroke-width="1" opacity="0.49411764705882355" d="M 406.5 436 L 405.5 438 L 400.5 441 L 401.5 439 L 406.5 436 Z " /><path fill="rgb(255,255,255)" stroke="rgb(255,255,255)" stroke-width="1" opacity="0.49411764705882355" d="M 153.5 437 L 169 448.5 L 167.5 448 Q 157.4 443.9 153.5 437 Z " /><path fill="rgb(255,255,255)" stroke="rgb(255,255,255)" stroke-width="1" opacity="0.49411764705882355" d="M 398.5 441 L 397.5 443 L 395.5 444 L 396.5 442 L 398.5 441 Z " /><path fill="rgb(255,255,255)" stroke="rgb(255,255,255)" stroke-width="1" opacity="0.49411764705882355" d="M 393.5 444 L 392.5 446 L 388.5 448 L 389.5 446 L 393.5 444 Z " /><path fill="rgb(255,255,255)" stroke="rgb(255,255,255)" stroke-width="1" opacity="0.49411764705882355" d="M 170.5 449 L 174 451.5 L 172.5 451 L 170.5 449 Z " /><path fill="rgb(255,255,255)" stroke="rgb(255,255,255)" stroke-width="1" opacity="0.49411764705882355" d="M 175.5 452 L 190 459.5 L 188.5 460 L 176.5 454 L 175.5 452 Z " /><path fill="rgb(255,255,255)" stroke="rgb(255,255,255)" stroke-width="1" opacity="0.49411764705882355" d="M 369.5 456 L 371 456.5 L 367.5 458 L 367.5 457 L 369.5 456 Z " /><path fill="rgb(255,255,255)" stroke="rgb(255,255,255)" stroke-width="1" opacity="0.49411764705882355" d="M 362.5 459 L 364 459.5 L 360.5 461 L 360.5 460 L 362.5 459 Z " /><path fill="rgb(255,255,255)" stroke="rgb(255,255,255)" stroke-width="1" opacity="0.49411764705882355" d="M 193.5 461 L 197 462.5 L 195.5 463 L 193.5 461 Z " /><path fill="rgb(255,255,255)" stroke="rgb(255,255,255)" stroke-width="1" opacity="0.49411764705882355" d="M 357.5 461 L 359 461.5 L 355.5 463 L 355.5 462 L 357.5 461 Z " /><path fill="rgb(255,255,255)" stroke="rgb(255,255,255)" stroke-width="1" opacity="0.49411764705882355" d="M 201.5 464 L 205 465.5 L 203.5 466 L 201.5 464 Z " /><path fill="rgb(255,255,255)" stroke="rgb(255,255,255)" stroke-width="1" opacity="0.49411764705882355" d="M 209.5 467 L 215 468.5 L 212.5 469 L 209.5 468 L 209.5 467 Z " /><path fill="rgb(255,255,255)" stroke="rgb(255,255,255)" stroke-width="1" opacity="0.49411764705882355" d="M 336.5 468 L 339 468.5 L 336.5 469 L 336.5 468 Z " /><path fill="rgb(255,255,255)" stroke="rgb(255,255,255)" stroke-width="1" opacity="0.49411764705882355" d="M 324.5 471 L 327 471.5 L 324.5 472 L 324.5 471 Z " /><path fill="rgb(255,255,255)" stroke="rgb(255,255,255)" stroke-width="1" opacity="0.49411764705882355" d="M 228.5 472 L 231 472.5 L 228.5 473 L 228.5 472 Z " /><path fill="rgb(255,255,255)" stroke="rgb(255,255,255)" stroke-width="1" opacity="0.49411764705882355" d="M 320.5 472 L 323 472.5 L 320.5 473 L 320.5 472 Z " /><path fill="rgb(255,255,255)" stroke="rgb(255,255,255)" stroke-width="1" opacity="0.49411764705882355" d="M 233.5 473 L 236 473.5 L 233.5 474 L 233.5 473 Z " /><path fill="rgb(255,255,255)" stroke="rgb(255,255,255)" stroke-width="1" opacity="0.49411764705882355" d="M 315.5 473 L 318 473.5 L 315.5 474 L 315.5 473 Z " /><path fill="rgb(255,255,255)" stroke="rgb(255,255,255)" stroke-width="1" opacity="0.49411764705882355" d="M 238.5 474 L 242 474.5 L 238.5 475 L 238.5 474 Z " /><path fill="rgb(255,255,255)" stroke="rgb(255,255,255)" stroke-width="1" opacity="0.49411764705882355" d="M 309.5 474 L 313 474.5 L 309.5 475 L 309.5 474 Z " /><path fill="rgb(255,255,255)" stroke="rgb(255,255,255)" stroke-width="1" opacity="0.49411764705882355" d="M 245.5 475 L 250 475.5 L 245.5 476 L 245.5 475 Z " /><path fill="rgb(255,255,255)" stroke="rgb(255,255,255)" stroke-width="1" opacity="0.49411764705882355" d="M 301.5 475 L 306 475.5 L 301.5 476 L 301.5 475 Z " /><path fill="rgb(255,255,255)" stroke="rgb(255,255,255)" stroke-width="1" opacity="0.49411764705882355" d="M 253.5 476 L 260 476.5 L 253.5 477 L 253.5 476 Z " /><path fill="rgb(255,255,255)" stroke="rgb(255,255,255)" stroke-width="1" opacity="0.49411764705882355" d="M 291.5 476 L 298 476.5 L 291.5 477 L 291.5 476 Z " /><path fill="rgb(255,255,255)" stroke="rgb(255,255,255)" stroke-width="1" opacity="0.49411764705882355" d="M 271.5 477 L 280 477.5 L 271.5 478 L 271.5 477 Z " /><path fill="rgb(255,255,255)" stroke="rgb(255,255,255)" stroke-width="1" opacity="0.49411764705882355" d="M 64.5 563 L 74.5 563 L 76 564.5 L 74.5 564 L 64.5 564 L 64 564.5 L 64 659.5 L 64.5 661 L 63 659.5 L 63 564.5 L 64.5 563 Z " /><path fill="rgb(255,255,255)" stroke="rgb(255,255,255)" stroke-width="1" opacity="0.49411764705882355" d="M 250.5 563 L 259.5 563 L 261 564.5 L 259.5 564 L 250.5 564 L 249.5 565 L 250.5 563 Z " /><path fill="rgb(255,255,255)" stroke="rgb(255,255,255)" stroke-width="1" opacity="0.49411764705882355" d="M 341.5 563 L 351.5 563 L 353 564.5 L 351.5 564 L 341 564 L 341 592 L 313.5 592 L 312 592.5 L 313.5 591 L 340 591 L 340 564.5 L 341.5 563 Z " /><path fill="rgb(255,255,255)" stroke="rgb(255,255,255)" stroke-width="1" opacity="0.49411764705882355" d="M 519.5 563 L 529.5 563 L 531 564.5 L 530.5 601 L 530 564 L 519.5 564 L 519 564.5 L 519 659.5 L 519.5 661 L 518 659.5 L 518 564.5 L 519.5 563 Z " /><path fill="rgb(255,255,255)" stroke="rgb(255,255,255)" stroke-width="1" opacity="0.49411764705882355" d="M 615.5 563 L 625.5 563 L 627 564.5 L 627 659.5 L 625.5 661 L 626 659.5 L 626 564.5 L 625.5 564 L 615 564 L 615 659.5 L 616 660.5 L 614 661 L 614 564.5 L 615.5 563 Z " /><path fill="rgb(255,255,255)" stroke="rgb(255,255,255)" stroke-width="1" opacity="0.49411764705882355" d="M 203.5 568 L 213.5 568 L 215 569.5 L 213.5 569 L 203 569 L 203 582.5 L 202 582.5 L 202 569.5 L 203.5 568 Z " /><path fill="rgb(255,255,255)" stroke="rgb(255,255,255)" stroke-width="1" opacity="0.49411764705882355" d="M 21.5 569 L 29 569.5 L 21.5 570 L 21.5 569 Z " /><path fill="rgb(255,255,255)" stroke="rgb(255,255,255)" stroke-width="1" opacity="0.49411764705882355" d="M 278.5 569 L 278 570.5 L 277.5 628 L 277 570.5 L 278.5 569 Z " /><path fill="rgb(255,255,255)" stroke="rgb(255,255,255)" stroke-width="1" opacity="0.49411764705882355" d="M 288.5 569 Q 290.8 568.3 290 570.5 L 288.5 569 Z " /><path fill="rgb(255,255,255)" stroke="rgb(255,255,255)" stroke-width="1" opacity="0.49411764705882355" d="M 31.5 570 Q 39 571.5 43 576.5 L 40.5 575 L 31.5 571 L 31.5 570 Z " /><path fill="rgb(255,255,255)" stroke="rgb(255,255,255)" stroke-width="1" opacity="0.49411764705882355" d="M 101.5 570 L 103 570.5 L 99.5 573 L 101.5 570 Z " /><path fill="rgb(255,255,255)" stroke="rgb(255,255,255)" stroke-width="1" opacity="0.49411764705882355" d="M 374.5 571 L 435.5 571 L 439 574.5 L 438.5 576 L 435.5 572 L 374.5 572 L 374 572.5 L 374 581 L 425.5 581 L 427 582.5 L 426.5 605 L 426 582 L 374.5 582 L 373 580.5 L 373 572.5 L 374.5 571 Z " /><path fill="rgb(255,255,255)" stroke="rgb(255,255,255)" stroke-width="1" opacity="0.49411764705882355" d="M 500.5 571 L 503 572.5 L 502.5 574 L 502 572 L 500.5 571 Z " /><path fill="rgb(255,255,255)" stroke="rgb(255,255,255)" stroke-width="1" opacity="0.49411764705882355" d="M 548.5 571 L 604 571.5 L 548 572 L 547.5 580 L 547 572.5 L 548.5 571 Z " /><path fill="rgb(255,255,255)" stroke="rgb(255,255,255)" stroke-width="1" opacity="0.49411764705882355" d="M 11.5 573 L 6.5 579 L 11.5 573 Z " /><path fill="rgb(255,255,255)" stroke="rgb(255,255,255)" stroke-width="1" opacity="0.49411764705882355" d="M 98.5 574 L 99 610.5 L 98 610.5 L 98.5 574 Z " /><path fill="rgb(255,255,255)" stroke="rgb(255,255,255)" stroke-width="1" opacity="0.49411764705882355" d="M 163.5 574 L 164 610.5 L 163 610.5 L 163.5 574 Z " /><path fill="rgb(255,255,255)" stroke="rgb(255,255,255)" stroke-width="1" opacity="0.49411764705882355" d="M 503.5 575 L 504 602.5 L 503 602.5 L 503.5 575 Z " /><path fill="rgb(255,255,255)" stroke="rgb(255,255,255)" stroke-width="1" opacity="0.49411764705882355" d="M 214.5 577 L 215 585.5 L 214 585.5 L 214.5 577 Z " /><path fill="rgb(255,255,255)" stroke="rgb(255,255,255)" stroke-width="1" opacity="0.49411764705882355" d="M 43.5 578 L 48 585.5 L 47 585.5 L 43.5 578 Z " /><path fill="rgb(255,255,255)" stroke="rgb(255,255,255)" stroke-width="1" opacity="0.49411764705882355" d="M 5.5 580 L 5 581.5 L 3.5 585 L 3 583.5 L 5.5 580 Z " /><path fill="rgb(255,255,255)" stroke="rgb(255,255,255)" stroke-width="1" opacity="0.49411764705882355" d="M 22.5 580 L 28 580.5 Q 19.1 580.1 16.5 586 L 20.5 581 L 22.5 580 Z " /><path fill="rgb(255,255,255)" stroke="rgb(255,255,255)" stroke-width="1" opacity="0.49411764705882355" d="M 150.5 580 L 152 581.5 L 152 603.5 L 150 604.5 L 151 603.5 L 151 581.5 L 150.5 580 Z " /><path fill="rgb(255,255,255)" stroke="rgb(255,255,255)" stroke-width="1" opacity="0.49411764705882355" d="M 29.5 581 L 34 584.5 L 36 588.5 L 35 588.5 L 31.5 583 L 29.5 581 Z " /><path fill="rgb(255,255,255)" stroke="rgb(255,255,255)" stroke-width="1" opacity="0.49411764705882355" d="M 549.5 581 L 557 581.5 L 549.5 582 L 549.5 581 Z " /><path fill="rgb(255,255,255)" stroke="rgb(255,255,255)" stroke-width="1" opacity="0.49411764705882355" d="M 569.5 581 L 584 581 L 584 621.5 L 583 621.5 L 583 582 L 569.5 582 L 569.5 581 Z " /><path fill="rgb(255,255,255)" stroke="rgb(255,255,255)" stroke-width="1" opacity="0.49411764705882355" d="M 595 581 L 603 581.5 L 596 582 L 595.5 621 L 595 581 Z " /><path fill="rgb(255,255,255)" stroke="rgb(255,255,255)" stroke-width="1" opacity="0.49411764705882355" d="M 491.5 582 L 492 596.5 L 490.5 598 L 464.5 598 L 464.5 597 L 491 597 L 491.5 582 Z " /><path fill="rgb(255,255,255)" stroke="rgb(255,255,255)" stroke-width="1" opacity="0.49411764705882355" d="M 201.5 588 L 202 591.5 L 201 591.5 L 201.5 588 Z " /><path fill="rgb(255,255,255)" stroke="rgb(255,255,255)" stroke-width="1" opacity="0.49411764705882355" d="M 213.5 590 L 214 593.5 L 213 593.5 L 213.5 590 Z " /><path fill="rgb(255,255,255)" stroke="rgb(255,255,255)" stroke-width="1" opacity="0.49411764705882355" d="M 49.5 591 L 50 593.5 L 49 593.5 L 49.5 591 Z " /><path fill="rgb(255,255,255)" stroke="rgb(255,255,255)" stroke-width="1" opacity="0.49411764705882355" d="M 0.5 593 L 1 596.5 L 0 596.5 L 0.5 593 Z " /><path fill="rgb(255,255,255)" stroke="rgb(255,255,255)" stroke-width="1" opacity="0.49411764705882355" d="M 200.5 593 L 201 595.5 L 200 595.5 L 200.5 593 Z " /><path fill="rgb(255,255,255)" stroke="rgb(255,255,255)" stroke-width="1" opacity="0.49411764705882355" d="M 12.5 595 L 13 598.5 L 12 598.5 L 12.5 595 Z " /><path fill="rgb(255,255,255)" stroke="rgb(255,255,255)" stroke-width="1" opacity="0.49411764705882355" d="M 50.5 596 L 51 609.5 L 50 609.5 L 50.5 596 Z " /><path fill="rgb(255,255,255)" stroke="rgb(255,255,255)" stroke-width="1" opacity="0.49411764705882355" d="M 38.5 598 L 39 608.5 L 38 608.5 L 38.5 598 Z " /><path fill="rgb(255,255,255)" stroke="rgb(255,255,255)" stroke-width="1" opacity="0.49411764705882355" d="M 461.5 598 L 463 598.5 L 459.5 601 L 461.5 598 Z " /><path fill="rgb(255,255,255)" stroke="rgb(255,255,255)" stroke-width="1" opacity="0.49411764705882355" d="M 438.5 599 L 439 609.5 L 438 609.5 L 438.5 599 Z " /><path fill="rgb(255,255,255)" stroke="rgb(255,255,255)" stroke-width="1" opacity="0.49411764705882355" d="M 340.5 602 L 341 659.5 L 342 660.5 L 340 659.5 L 340.5 602 Z " /><path fill="rgb(255,255,255)" stroke="rgb(255,255,255)" stroke-width="1" opacity="0.49411764705882355" d="M 458.5 602 L 459 632.5 L 458 632.5 L 458.5 602 Z " /><path fill="rgb(255,255,255)" stroke="rgb(255,255,255)" stroke-width="1" opacity="0.49411764705882355" d="M 197.5 604 L 198 605.5 L 196.5 608 L 196 606.5 L 197.5 604 Z " /><path fill="rgb(255,255,255)" stroke="rgb(255,255,255)" stroke-width="1" opacity="0.49411764705882355" d="M 502.5 604 L 503 605.5 L 501 606.5 L 502.5 604 Z " /><path fill="rgb(255,255,255)" stroke="rgb(255,255,255)" stroke-width="1" opacity="0.49411764705882355" d="M 227 606 L 249 606.5 L 228.5 607 L 227.5 608 L 227 606 Z " /><path fill="rgb(255,255,255)" stroke="rgb(255,255,255)" stroke-width="1" opacity="0.49411764705882355" d="M 472.5 607 L 500 607.5 L 472.5 608 L 471 609.5 L 471 626 L 489.5 626 L 489.5 627 L 471.5 627 L 470 625.5 L 470 609.5 L 472.5 607 Z " /><path fill="rgb(255,255,255)" stroke="rgb(255,255,255)" stroke-width="1" opacity="0.49411764705882355" d="M 12.5 608 L 13 611.5 L 12 611.5 L 12.5 608 Z " /><path fill="rgb(255,255,255)" stroke="rgb(255,255,255)" stroke-width="1" opacity="0.49411764705882355" d="M 0.5 609 L 1 613.5 L 0 613.5 L 0.5 609 Z " /><path fill="rgb(255,255,255)" stroke="rgb(255,255,255)" stroke-width="1" opacity="0.49411764705882355" d="M 218.5 610 L 221 613.5 L 219 612.5 L 218.5 610 Z " /><path fill="rgb(255,255,255)" stroke="rgb(255,255,255)" stroke-width="1" opacity="0.49411764705882355" d="M 37.5 611 L 38 613.5 L 37 613.5 L 37.5 611 Z " /><path fill="rgb(255,255,255)" stroke="rgb(255,255,255)" stroke-width="1" opacity="0.49411764705882355" d="M 530.5 611 L 531 659.5 L 529 660.5 L 530 659.5 L 530.5 611 Z " /><path fill="rgb(255,255,255)" stroke="rgb(255,255,255)" stroke-width="1" opacity="0.49411764705882355" d="M 99.5 612 L 103 614.5 L 101.5 615 L 99.5 612 Z " /><path fill="rgb(255,255,255)" stroke="rgb(255,255,255)" stroke-width="1" opacity="0.49411764705882355" d="M 162.5 612 L 160.5 615 L 159 614.5 L 162.5 612 Z " /><path fill="rgb(255,255,255)" stroke="rgb(255,255,255)" stroke-width="1" opacity="0.49411764705882355" d="M 425.5 612 L 426 618.5 L 425 618.5 L 425.5 612 Z " /><path fill="rgb(255,255,255)" stroke="rgb(255,255,255)" stroke-width="1" opacity="0.49411764705882355" d="M 13.5 613 L 15 617.5 L 14 617.5 L 13.5 613 Z " /><path fill="rgb(255,255,255)" stroke="rgb(255,255,255)" stroke-width="1" opacity="0.49411764705882355" d="M 49.5 613 L 50 615.5 L 49 615.5 L 49.5 613 Z " /><path fill="rgb(255,255,255)" stroke="rgb(255,255,255)" stroke-width="1" opacity="0.49411764705882355" d="M 206 614 L 209 615.5 L 215 625.5 L 212 623.5 L 207.5 615 L 203.5 621 L 204 619.5 L 206 614 Z " /><path fill="rgb(255,255,255)" stroke="rgb(255,255,255)" stroke-width="1" opacity="0.49411764705882355" d="M 1.5 615 L 2 617.5 L 1 617.5 L 1.5 615 Z " /><path fill="rgb(255,255,255)" stroke="rgb(255,255,255)" stroke-width="1" opacity="0.49411764705882355" d="M 137.5 615 L 138 633.5 L 137 633.5 L 137.5 615 Z " /><path fill="rgb(255,255,255)" stroke="rgb(255,255,255)" stroke-width="1" opacity="0.49411764705882355" d="M 192.5 615 L 192 616.5 L 187.5 623 L 189 620.5 L 192.5 615 Z " /><path fill="rgb(255,255,255)" stroke="rgb(255,255,255)" stroke-width="1" opacity="0.49411764705882355" d="M 221.5 615 L 234 628.5 L 223 618.5 L 221.5 615 Z " /><path fill="rgb(255,255,255)" stroke="rgb(255,255,255)" stroke-width="1" opacity="0.49411764705882355" d="M 227.5 615 L 228.5 616 L 249 616.5 L 228.5 617 L 227.5 615 Z " /><path fill="rgb(255,255,255)" stroke="rgb(255,255,255)" stroke-width="1" opacity="0.49411764705882355" d="M 437.5 615 L 438 620.5 L 437 620.5 L 437.5 615 Z " /><path fill="rgb(255,255,255)" stroke="rgb(255,255,255)" stroke-width="1" opacity="0.49411764705882355" d="M 48.5 617 L 49 619.5 L 47.5 622 L 47 620.5 L 48.5 617 Z " /><path fill="rgb(255,255,255)" stroke="rgb(255,255,255)" stroke-width="1" opacity="0.49411764705882355" d="M 15.5 619 L 20 624.5 L 16 621.5 L 15.5 619 Z " /><path fill="rgb(255,255,255)" stroke="rgb(255,255,255)" stroke-width="1" opacity="0.49411764705882355" d="M 327.5 619 L 331 620.5 L 330.5 622 L 330 620 Q 326.7 620.8 327.5 619 Z " /><path fill="rgb(255,255,255)" stroke="rgb(255,255,255)" stroke-width="1" opacity="0.49411764705882355" d="M 34.5 620 L 29.5 626 L 28 625.5 L 34.5 620 Z " /><path fill="rgb(255,255,255)" stroke="rgb(255,255,255)" stroke-width="1" opacity="0.49411764705882355" d="M 321.5 620 L 325 620.5 L 321.5 621 L 321.5 620 Z " /><path fill="rgb(255,255,255)" stroke="rgb(255,255,255)" stroke-width="1" opacity="0.49411764705882355" d="M 599.5 620 L 605 620.5 L 599.5 621 L 599.5 620 Z " /><path fill="rgb(255,255,255)" stroke="rgb(255,255,255)" stroke-width="1" opacity="0.49411764705882355" d="M 315.5 621 L 319 621.5 L 315.5 622 L 315.5 621 Z " /><path fill="rgb(255,255,255)" stroke="rgb(255,255,255)" stroke-width="1" opacity="0.49411764705882355" d="M 202.5 622 L 202 623.5 L 197.5 630 L 199 627.5 L 202.5 622 Z " /><path fill="rgb(255,255,255)" stroke="rgb(255,255,255)" stroke-width="1" opacity="0.49411764705882355" d="M 290.5 622 L 310 622.5 L 290.5 623 L 290.5 622 Z " /><path fill="rgb(255,255,255)" stroke="rgb(255,255,255)" stroke-width="1" opacity="0.49411764705882355" d="M 546 622 L 557 622.5 L 547.5 623 L 546.5 624 L 546 622 Z " /><path fill="rgb(255,255,255)" stroke="rgb(255,255,255)" stroke-width="1" opacity="0.49411764705882355" d="M 569.5 622 L 577 622.5 L 569.5 623 L 569.5 622 Z " /><path fill="rgb(255,255,255)" stroke="rgb(255,255,255)" stroke-width="1" opacity="0.49411764705882355" d="M 46.5 623 L 47 624.5 L 45 625.5 L 46.5 623 Z " /><path fill="rgb(255,255,255)" stroke="rgb(255,255,255)" stroke-width="1" opacity="0.49411764705882355" d="M 424.5 623 L 425 627.5 L 424 627.5 L 424.5 623 Z " /><path fill="rgb(255,255,255)" stroke="rgb(255,255,255)" stroke-width="1" opacity="0.49411764705882355" d="M 609.5 623 L 610 626.5 L 609 626.5 L 609.5 623 Z " /><path fill="rgb(255,255,255)" stroke="rgb(255,255,255)" stroke-width="1" opacity="0.49411764705882355" d="M 186.5 624 L 179.5 632 L 186.5 624 Z " /><path fill="rgb(255,255,255)" stroke="rgb(255,255,255)" stroke-width="1" opacity="0.49411764705882355" d="M 331.5 624 L 332 626.5 L 331 626.5 L 331.5 624 Z " /><path fill="rgb(255,255,255)" stroke="rgb(255,255,255)" stroke-width="1" opacity="0.49411764705882355" d="M 436.5 624 L 437 628.5 L 436 628.5 L 436.5 624 Z " /><path fill="rgb(255,255,255)" stroke="rgb(255,255,255)" stroke-width="1" opacity="0.49411764705882355" d="M 503.5 624 L 507 624.5 L 503.5 625 L 503.5 624 Z " /><path fill="rgb(255,255,255)" stroke="rgb(255,255,255)" stroke-width="1" opacity="0.49411764705882355" d="M 511.5 624 L 513 627.5 L 512 627.5 L 511.5 624 Z " /><path fill="rgb(255,255,255)" stroke="rgb(255,255,255)" stroke-width="1" opacity="0.49411764705882355" d="M 495.5 625 L 500 625.5 L 495.5 626 L 495.5 625 Z " /><path fill="rgb(255,255,255)" stroke="rgb(255,255,255)" stroke-width="1" opacity="0.49411764705882355" d="M 5.5 626 L 6.5 628 L 5.5 626 Z " /><path fill="rgb(255,255,255)" stroke="rgb(255,255,255)" stroke-width="1" opacity="0.49411764705882355" d="M 23.5 626 L 27 626.5 L 23.5 627 L 23.5 626 Z " /><path fill="rgb(255,255,255)" stroke="rgb(255,255,255)" stroke-width="1" opacity="0.49411764705882355" d="M 44.5 627 L 38.5 634 L 44.5 627 Z " /><path fill="rgb(255,255,255)" stroke="rgb(255,255,255)" stroke-width="1" opacity="0.49411764705882355" d="M 215.5 627 L 227 637.5 L 225.5 638 L 215.5 627 Z " /><path fill="rgb(255,255,255)" stroke="rgb(255,255,255)" stroke-width="1" opacity="0.49411764705882355" d="M 331.5 628 L 330.5 630 L 328 629.5 L 331.5 628 Z " /><path fill="rgb(255,255,255)" stroke="rgb(255,255,255)" stroke-width="1" opacity="0.49411764705882355" d="M 609.5 628 L 608.5 630 L 607 629.5 L 609.5 628 Z " /><path fill="rgb(255,255,255)" stroke="rgb(255,255,255)" stroke-width="1" opacity="0.49411764705882355" d="M 7.5 629 L 10.5 633 L 7.5 629 Z " /><path fill="rgb(255,255,255)" stroke="rgb(255,255,255)" stroke-width="1" opacity="0.49411764705882355" d="M 234.5 630 L 234 631.5 L 230 638 L 228 637.5 L 234.5 630 Z " /><path fill="rgb(255,255,255)" stroke="rgb(255,255,255)" stroke-width="1" opacity="0.49411764705882355" d="M 323.5 630 L 327 630.5 L 323.5 631 L 323.5 630 Z " /><path fill="rgb(255,255,255)" stroke="rgb(255,255,255)" stroke-width="1" opacity="0.49411764705882355" d="M 598.5 630 L 604 630.5 L 598.5 631 L 598.5 630 Z " /><path fill="rgb(255,255,255)" stroke="rgb(255,255,255)" stroke-width="1" opacity="0.49411764705882355" d="M 196.5 631 L 187.5 641 L 185 640.5 L 187.5 640 L 196.5 631 Z " /><path fill="rgb(255,255,255)" stroke="rgb(255,255,255)" stroke-width="1" opacity="0.49411764705882355" d="M 279.5 631 L 283 632.5 L 281.5 633 L 279.5 631 Z " /><path fill="rgb(255,255,255)" stroke="rgb(255,255,255)" stroke-width="1" opacity="0.49411764705882355" d="M 317.5 631 L 321 631.5 L 317.5 632 L 317.5 631 Z " /><path fill="rgb(255,255,255)" stroke="rgb(255,255,255)" stroke-width="1" opacity="0.49411764705882355" d="M 423.5 631 L 424 632.5 L 422.5 634 L 361 634 L 361 642.5 L 361.5 643 L 452 643 L 452 634 L 435.5 634 L 435 631.5 L 436 631.5 L 436.5 633 L 451.5 633 L 453 634.5 L 453 642.5 L 451.5 644 L 361.5 644 L 360 642.5 L 360 634.5 L 361.5 633 L 423 633 L 423.5 631 Z " /><path fill="rgb(255,255,255)" stroke="rgb(255,255,255)" stroke-width="1" opacity="0.49411764705882355" d="M 546.5 631 L 547.5 632 L 577 632.5 L 547.5 633 L 546.5 631 Z " /><path fill="rgb(255,255,255)" stroke="rgb(255,255,255)" stroke-width="1" opacity="0.49411764705882355" d="M 586.5 631 L 593 631.5 L 586.5 632 L 586.5 631 Z " /><path fill="rgb(255,255,255)" stroke="rgb(255,255,255)" stroke-width="1" opacity="0.49411764705882355" d="M 306.5 632 L 313 632.5 L 306.5 633 L 306.5 632 Z " /><path fill="rgb(255,255,255)" stroke="rgb(255,255,255)" stroke-width="1" opacity="0.49411764705882355" d="M 12.5 633 L 17 635.5 L 15.5 636 L 12.5 633 Z " /><path fill="rgb(255,255,255)" stroke="rgb(255,255,255)" stroke-width="1" opacity="0.49411764705882355" d="M 178.5 633 L 184 639.5 L 178 635.5 Q 179.8 642.3 176.5 644 L 177 642.5 Q 178.8 636.2 176 634.5 L 178 634.5 L 178.5 633 Z " /><path fill="rgb(255,255,255)" stroke="rgb(255,255,255)" stroke-width="1" opacity="0.49411764705882355" d="M 36.5 634 L 35.5 636 L 34 635.5 L 36.5 634 Z " /><path fill="rgb(255,255,255)" stroke="rgb(255,255,255)" stroke-width="1" opacity="0.49411764705882355" d="M 459.5 634 L 460.5 636 L 459.5 634 Z " /><path fill="rgb(255,255,255)" stroke="rgb(255,255,255)" stroke-width="1" opacity="0.49411764705882355" d="M 506.5 634 L 509 634.5 L 506.5 635 L 506.5 634 Z " /><path fill="rgb(255,255,255)" stroke="rgb(255,255,255)" stroke-width="1" opacity="0.49411764705882355" d="M 498.5 635 L 503 635.5 L 498.5 636 L 498.5 635 Z " /><path fill="rgb(255,255,255)" stroke="rgb(255,255,255)" stroke-width="1" opacity="0.49411764705882355" d="M 30.5 636 L 33 636.5 L 30.5 637 L 30.5 636 Z " /><path fill="rgb(255,255,255)" stroke="rgb(255,255,255)" stroke-width="1" opacity="0.49411764705882355" d="M 462.5 636 L 465 636.5 L 462.5 637 L 462.5 636 Z " /><path fill="rgb(255,255,255)" stroke="rgb(255,255,255)" stroke-width="1" opacity="0.49411764705882355" d="M 487.5 636 L 494 636.5 L 487.5 637 L 487.5 636 Z " /><path fill="rgb(255,255,255)" stroke="rgb(255,255,255)" stroke-width="1" opacity="0.49411764705882355" d="M 23.5 637 L 27 637.5 L 23.5 638 L 23.5 637 Z " /><path fill="rgb(255,255,255)" stroke="rgb(255,255,255)" stroke-width="1" opacity="0.49411764705882355" d="M 75.5 659 L 74.5 661 L 75.5 659 Z " /><path fill="rgb(255,255,255)" stroke="rgb(255,255,255)" stroke-width="1" opacity="0.49411764705882355" d="M 352.5 659 L 351.5 661 L 352.5 659 Z " /><path fill="rgb(255,255,255)" stroke="rgb(255,255,255)" stroke-width="1" opacity="1" d="M 305.5 0 L 331.5 0 L 332.5 1 L 340.5 1 L 357.5 4 L 377.5 10 Q 419.8 25.7 447 56.5 L 445.5 59 L 419.5 82 L 415.5 84 Q 394.8 60.7 362.5 49 L 349.5 45 L 332.5 42 L 303.5 42 L 273.5 48 L 244.5 60 Q 218 74 199 95.5 Q 183.5 113 174 136.5 L 169 155.5 L 168 178.5 L 176 171.5 L 196.5 150 Q 224.1 124.1 262.5 109 L 294.5 100 L 309.5 99 L 310.5 98 L 331.5 98 L 354.5 102 L 373.5 109 Q 389.3 116.7 400 129.5 Q 408.6 139.4 413 153.5 L 416 169.5 L 416 180.5 L 413 197.5 L 402 222.5 Q 390.1 241.1 373.5 255 Q 351.6 273.6 321.5 284 L 288.5 292 L 257.5 294 L 256.5 293 L 241.5 293 L 240.5 292 L 227.5 291 L 199.5 283 Q 177 274.5 161.5 259 Q 151.4 274.4 146 294.5 L 142 315.5 L 142 335.5 L 146 355.5 L 154 374.5 Q 164.2 392.3 179.5 405 Q 199 421 226.5 429 L 258.5 435 L 291.5 435 L 324.5 429 L 362.5 414 Q 402.5 393 431 360.5 Q 456.4 332.9 472 295.5 L 482 261.5 L 483 249.5 L 484 248.5 L 485 225.5 L 484 224.5 L 484 211.5 L 480 189.5 L 469 156 L 506.5 141 L 510 146.5 L 516 163.5 L 524 196.5 L 525 210.5 L 526 211.5 L 526 248.5 L 525 249.5 L 525 257.5 L 524 258.5 L 523 269.5 L 517 293.5 L 501 332.5 Q 475.9 379.4 437.5 413 Q 402.4 444.4 354.5 463 L 332.5 470 L 308.5 475 L 291.5 476 L 290.5 477 L 260.5 477 L 259.5 476 L 250.5 476 L 249.5 475 L 242.5 475 L 226.5 472 L 192.5 461 Q 155.9 445.1 132 416.5 Q 115.1 395.9 106 367.5 L 101 344.5 L 100 317.5 L 101 316.5 L 101 306.5 L 102 305.5 L 103 294.5 L 112 264.5 L 121 244.5 L 134 223.5 L 135 219.5 L 130 206.5 L 127 192.5 L 126 162.5 L 127 161.5 L 128 147.5 L 133 127.5 L 147 96.5 Q 160.9 72.9 180.5 55 Q 205.2 31.7 238.5 17 L 266.5 7 L 283.5 3 L 288.5 3 L 295.5 1 L 304.5 1 L 305.5 0 Z M 311 140 L 290 144 L 273 150 Q 245 162 225 181 Q 203 200 186 225 Q 198 238 217 245 L 236 250 L 252 251 L 253 252 L 281 251 L 301 247 Q 327 239 346 224 Q 358 214 367 200 Q 372 192 374 181 Q 375 164 368 157 L 360 149 L 347 143 L 332 140 L 311 140 Z " /><path fill="rgb(255,255,255)" stroke="rgb(255,255,255)" stroke-width="1" opacity="1" d="M 458.5 81 Q 478 80 485 91.5 L 490 102.5 L 490 112.5 Q 487.1 124.1 478.5 130 Q 471.6 135.6 457.5 134 Q 446.6 130.9 441 122.5 Q 435.2 115.8 437 101.5 Q 440.1 90.6 448.5 85 L 458.5 81 Z " /><path fill="rgb(255,255,255)" stroke="rgb(255,255,255)" stroke-width="1" opacity="1" d="M 64 564 L 74.5 564 L 76 565.5 L 76 658.5 L 73.5 661 L 65.5 661 L 64 659.5 L 64 564 Z " /><path fill="rgb(255,255,255)" stroke="rgb(255,255,255)" stroke-width="1" opacity="1" d="M 250.5 564 L 259.5 564 L 261 565.5 L 261 659.5 L 259.5 660 Q 257.8 662.7 251.5 661 L 249 660 L 249 616 L 228.5 616 Q 225.5 614.5 227 608.5 L 228.5 607 L 249 607 L 249 596 L 228.5 596 Q 225.3 594.3 227 587.5 L 228.5 586 L 249 586 L 249 565.5 L 250.5 564 Z " /><path fill="rgb(255,255,255)" stroke="rgb(255,255,255)" stroke-width="1" opacity="1" d="M 341 564 L 351.5 564 L 353 565.5 L 353 658.5 L 350.5 661 L 342.5 661 L 341 659.5 L 341 602 L 313.5 602 Q 310.3 600.3 312 593.5 L 313.5 592 L 341 592 L 341 564 Z " /><path fill="rgb(255,255,255)" stroke="rgb(255,255,255)" stroke-width="1" opacity="1" d="M 519 564 L 529.5 564 L 530 564.5 L 530 601 L 544.5 601 Q 547.5 602.5 546 608.5 L 545 611 L 530.5 611 L 530 611.5 L 530 659.5 L 528.5 661 L 520.5 661 L 519 659.5 L 519 564 Z " /><path fill="rgb(255,255,255)" stroke="rgb(255,255,255)" stroke-width="1" opacity="1" d="M 615 564 L 625.5 564 L 626 564.5 L 626 659.5 L 624.5 661 L 616.5 661 L 615 659.5 L 615 564 Z " /><path fill="rgb(255,255,255)" stroke="rgb(255,255,255)" stroke-width="1" opacity="1" d="M 203 569 L 213.5 569 L 215 570.5 L 213 599.5 Q 220 618.5 234 630.5 L 227.5 638 L 215 626.5 L 207.5 614 Q 205.3 613.3 206 615.5 Q 199.4 630.4 187.5 640 L 184.5 640 L 179 634.5 L 179 632.5 L 192 617.5 L 198 605.5 L 202 591.5 L 203 569 Z " /><path fill="rgb(255,255,255)" stroke="rgb(255,255,255)" stroke-width="1" opacity="1" d="M 279.5 569 Q 288 567 290 571.5 L 290 623 L 309.5 623 L 310.5 622 L 318.5 622 L 330 620 L 332 627.5 L 327.5 630 L 316.5 632 L 283.5 633 L 279 631 L 278 628.5 L 278 570.5 L 279.5 569 Z " /><path fill="rgb(255,255,255)" stroke="rgb(255,255,255)" stroke-width="1" opacity="1" d="M 19.5 570 L 30.5 570 Q 38.3 572.3 43 577.5 L 49 589.5 L 50 594.5 L 50 612.5 L 45 626.5 L 37.5 634 Q 31.7 638.2 20.5 637 Q 11.6 634.9 7 628.5 Q -1.1 617.6 0 597.5 Q 2.3 596.2 1 591.5 L 6 579.5 L 12.5 573 L 19.5 570 Z M 23 580 L 21 581 Q 14 586 12 596 Q 10 613 16 622 L 24 627 L 30 626 L 35 621 L 39 609 Q 40 593 34 585 L 28 580 L 23 580 Z " /><path fill="rgb(255,255,255)" stroke="rgb(255,255,255)" stroke-width="1" opacity="1" d="M 103.5 570 L 158.5 570 L 162 571 L 163 573.5 L 163 611.5 L 158.5 615 L 137 615 L 137 634 L 175.5 634 Q 178.8 635.8 177 642.5 L 175.5 644 L 86.5 644 Q 83.3 642.3 85 635.5 L 86.5 634 L 125 634 L 125 615 L 103.5 615 L 99 611.5 L 99 573.5 L 101.5 571 L 103.5 570 Z M 111 580 L 111 605 L 151 605 L 152 604 L 152 582 L 151 580 L 111 580 Z " /><path fill="rgb(255,255,255)" stroke="rgb(255,255,255)" stroke-width="1" opacity="1" d="M 460.5 571 L 499.5 571 L 502 572 L 503 574.5 L 503 603.5 L 500.5 607 L 472.5 607 L 470 609.5 L 470 625.5 L 471.5 627 L 489.5 627 L 490.5 626 L 499.5 626 L 510.5 624 Q 513.9 627 513 633 L 505.5 635 L 487.5 636 L 486.5 637 L 465.5 637 L 461.5 636 L 459 633.5 L 459 601.5 L 461.5 599 L 463.5 598 L 490.5 598 L 492 596.5 L 492 582.5 L 490.5 581 L 461.5 581 L 459 580 L 459 572.5 L 460.5 571 Z " /><path fill="rgb(255,255,255)" stroke="rgb(255,255,255)" stroke-width="1" opacity="1" d="M 374 572 L 435.5 572 L 438 574.5 L 439 576.5 L 439 598.5 L 438 599.5 L 437 623.5 L 435 634 L 452 634 L 452 643 L 361.5 643 L 361 642.5 L 361 634 L 422.5 634 L 424 632.5 L 425 619.5 L 426 618.5 L 426 605.5 L 427 604.5 L 427 582.5 L 425.5 581 L 374 581 L 374 572 Z " /><path fill="rgb(255,255,255)" stroke="rgb(255,255,255)" stroke-width="1" opacity="1" d="M 548 572 L 603.5 572 L 604 572.5 L 604 581 L 595.5 581 L 595 581.5 L 595 621 L 607.5 620 L 609 621.5 Q 607.8 626.2 610 627.5 L 606.5 630 L 586.5 631 L 585.5 632 L 547.5 632 Q 544.5 630.5 546 624.5 L 547.5 623 L 557 623 L 557 581.5 L 556.5 581 L 548 581 L 548 572 Z M 569 581 L 569 623 L 584 622 L 584 581 L 569 581 Z " /><path fill="rgb(0,0,0)" stroke="rgb(0,0,0)" stroke-width="1" opacity="0" d="M 0 0 L 299 0.5 L 285.5 2 L 267.5 6 L 234.5 18 Q 196.7 35.7 170 64.5 Q 147 88.5 134 122.5 L 129 139.5 L 126 156.5 L 126 189.5 L 129 205.5 L 134 218.5 L 134 222.5 Q 116.9 245.9 107 276.5 L 103 291.5 L 101 309.5 L 100 310.5 L 100 340.5 L 105 366.5 L 117 395.5 Q 130.7 419.8 151.5 437 Q 176.9 458.1 212.5 469 L 245.5 476 L 279.5 478 L 280.5 477 L 297.5 477 L 298.5 476 L 305.5 476 L 322.5 473 L 338.5 469 L 368.5 458 Q 424.9 432.4 463 388.5 Q 495.4 353.4 514 304.5 L 520 285.5 L 525 261.5 L 526 243.5 L 527 242.5 L 527 217.5 L 526 216.5 L 526 206.5 L 525 205.5 L 523 187.5 L 517 164.5 L 508 140 L 468 156 Q 477.2 176.5 482 202.5 L 483 216.5 L 484 217.5 L 484 242.5 L 483 243.5 L 483 251.5 L 482 252.5 L 481 263.5 L 476 282.5 L 464 311.5 Q 442.6 352.1 409.5 381 Q 380.4 407.4 340.5 423 L 325.5 428 L 302.5 433 L 285.5 434 L 284.5 435 L 266.5 435 L 265.5 434 L 254.5 434 L 232.5 430 L 202.5 419 Q 180.1 407.9 165 389.5 Q 152.6 374.4 146 353.5 L 143 339.5 L 143 312.5 L 147 293.5 L 151 281.5 L 161.5 260 Q 180.3 278.2 208.5 287 L 236.5 293 L 245.5 293 L 246.5 294 L 275.5 294 L 276.5 293 L 292.5 292 L 314.5 287 L 340.5 277 Q 371.1 262.1 392 237.5 Q 406.8 220.8 414 196.5 L 416 186.5 L 416 164.5 Q 410.8 135.2 391.5 120 Q 376.2 106.7 353.5 101 L 337.5 98 L 304.5 98 L 303.5 99 L 296.5 99 L 286.5 101 L 268.5 106 L 233.5 122 Q 200.6 141.6 176 169.5 L 169.5 177 L 168 176.5 L 168 169.5 L 169 168.5 L 169 159.5 L 172 145.5 L 180 124.5 Q 192.9 100.4 212.5 83 Q 236.2 61.7 269.5 50 L 293.5 44 L 309.5 43 L 310.5 42 L 325.5 42 L 326.5 43 L 335.5 43 L 346.5 45 L 368.5 52 Q 396.9 64.1 416.5 85 L 448 57.5 L 431.5 40 Q 411.1 22.9 384.5 12 L 355.5 3 L 338 0.5 L 627 0 L 626.5 564 L 625.5 563 L 615.5 563 L 614 564.5 L 614 661 L 530 660.5 L 531 659.5 L 531 611 L 546 611 L 546 601 L 531 601 L 531 564.5 L 529.5 563 L 519.5 563 L 518 564.5 L 518 659.5 L 518.5 661 L 352 660.5 L 353 659.5 L 353 564.5 L 351.5 563 L 341.5 563 L 340 564.5 L 340 591 L 313.5 591 L 312 592.5 L 312 602 L 340 602 L 340 659.5 L 340.5 661 L 261 661 L 261 564.5 L 259.5 563 L 250.5 563 L 249 564.5 L 249 586 L 227 586 L 227 596 L 249 596 L 249 606 L 227 606 L 227 615.5 L 228.5 617 L 249 617 L 249 660.5 L 248.5 661 L 75.5 661 L 76 659.5 L 76 564.5 L 74.5 563 L 64.5 563 L 63 564.5 L 63 659.5 L 64 660.5 L 0 661 L 0.5 614 Q 2.7 626.3 10.5 633 Q 16.2 637.8 26.5 638 L 35.5 636 L 45 627.5 L 50 615.5 L 51 596.5 L 48 584.5 L 40.5 574 L 33.5 570 L 21.5 569 Q 11.1 571.1 6 578.5 Q 1.6 584.1 0.5 593 L 0 0 Z M 461 80 L 453 82 L 448 85 Q 438 91 436 104 L 436 112 L 440 123 Q 446 132 460 135 Q 473 136 480 130 L 486 124 L 490 115 Q 489 110 491 109 L 490 101 L 486 92 Q 481 84 472 81 L 461 80 Z M 204 568 L 202 570 L 202 588 L 198 604 L 193 615 Q 188 625 179 632 L 178 635 Q 180 640 188 641 Q 200 631 208 615 L 215 628 L 226 638 L 230 638 L 235 631 Q 220 618 213 598 L 214 587 L 215 586 L 215 570 L 214 568 L 204 568 Z M 279 569 L 277 571 L 277 628 L 279 632 L 282 633 L 313 633 L 314 632 L 327 631 L 332 629 L 331 621 L 330 619 L 315 622 L 290 622 L 290 570 L 290 569 L 279 569 Z M 102 570 L 98 575 L 98 611 L 99 613 L 102 615 L 125 615 L 125 634 L 85 634 L 85 644 L 86 644 L 177 644 Q 180 642 178 636 L 177 634 L 138 634 L 138 615 L 161 615 L 164 611 L 164 575 L 163 571 L 161 570 L 102 570 Z M 375 571 L 373 573 L 373 581 L 375 582 L 426 582 L 426 612 L 425 613 L 424 631 L 423 632 L 423 633 L 362 633 L 360 635 L 360 643 L 362 644 L 452 644 L 453 643 L 453 635 L 452 633 L 436 633 L 438 621 L 438 611 L 439 610 L 439 575 L 436 571 L 375 571 Z M 459 571 L 459 581 L 460 581 L 491 581 L 491 597 L 465 597 L 462 598 L 458 603 L 458 633 L 459 635 L 463 637 L 494 637 L 495 636 L 503 636 L 513 634 L 514 632 Q 512 630 513 626 L 510 623 L 495 626 L 471 626 L 471 610 L 473 608 L 500 608 L 502 607 L 504 603 L 504 576 L 503 573 L 502 571 L 459 571 Z M 549 571 Q 545 573 547 580 L 550 582 L 557 582 L 557 622 L 557 622 L 546 622 L 546 632 L 548 633 L 593 632 L 594 631 L 609 630 L 610 629 L 609 620 L 600 620 L 599 621 L 596 621 L 596 582 L 603 582 L 604 581 L 604 572 L 604 571 L 549 571 Z " /><path fill="rgb(0,0,0)" stroke="rgb(0,0,0)" stroke-width="1" opacity="0" d="M 317.5 140 L 334.5 141 L 352.5 146 Q 361.9 150.1 368 157.5 Q 375.2 165.3 373 182.5 L 365 201.5 L 345.5 223 Q 327.3 238.3 301.5 246 L 275.5 251 L 246.5 251 L 245.5 250 L 233.5 249 L 213.5 243 Q 197.7 236.3 187 224.5 Q 203.5 201 224.5 182 Q 243.7 163.7 269.5 152 L 288.5 145 L 317.5 140 Z " /><path fill="rgb(0,0,0)" stroke="rgb(0,0,0)" stroke-width="1" opacity="0" d="M 112.5 580 L 149.5 580 L 151 581.5 L 151 603.5 L 149.5 605 L 112.5 605 L 111 603.5 L 111 581.5 L 112.5 580 Z " /><path fill="rgb(0,0,0)" stroke="rgb(0,0,0)" stroke-width="1" opacity="0" d="M 22.5 581 L 28.5 581 L 33 584.5 L 38 595.5 L 38 610.5 L 35 619.5 L 29.5 625 L 22.5 626 L 17 621.5 Q 11.3 613.7 12 599.5 L 14 590.5 L 20.5 582 L 22.5 581 Z " /><path fill="rgb(0,0,0)" stroke="rgb(0,0,0)" stroke-width="1" opacity="0" d="M 569 582 L 583 582 L 583 622 L 569 622 L 569 582 Z " /></svg>